  0
SECTION
  2
HEADER
  9
$ACADVER
  1
AC1024
  9
$ACADMAINTVER
 70
     6
  9
$DWGCODEPAGE
  3
UNDEFINED
  9
$INSBASE
 10
0.0
 20
0.0
 30
0.0
  9
$EXTMIN
 10
436.3059979444132
 20
1042.29659338666
 30
0.0
  9
$EXTMAX
 10
1085.463099297735
 20
1366.738650730342
 30
182.2701056279646
  9
$LIMMIN
 10
0.0
 20
0.0
  9
$LIMMAX
 10
420.0
 20
297.0
  9
$ORTHOMODE
 70
     0
  9
$REGENMODE
 70
     1
  9
$FILLMODE
 70
     1
  9
$QTEXTMODE
 70
     0
  9
$MIRRTEXT
 70
     1
  9
$LTSCALE
 40
1.0
  9
$ATTMODE
 70
     1
  9
$TEXTSIZE
 40
2.5
  9
$TRACEWID
 40
1.0
  9
$TEXTSTYLE
  7
Standard
  9
$CLAYER
  8
0
  9
$CELTYPE
  6
ByLayer
  9
$CECOLOR
 62
   256
  9
$CELTSCALE
 40
1.0
  9
$DISPSILH
 70
     0
  9
$DIMSCALE
 40
1.0
  9
$DIMASZ
 40
2.5
  9
$DIMEXO
 40
0.625
  9
$DIMDLI
 40
3.75
  9
$DIMRND
 40
0.0
  9
$DIMDLE
 40
0.0
  9
$DIMEXE
 40
1.25
  9
$DIMTP
 40
0.0
  9
$DIMTM
 40
0.0
  9
$DIMTXT
 40
2.5
  9
$DIMCEN
 40
2.5
  9
$DIMTSZ
 40
0.0
  9
$DIMTOL
 70
     0
  9
$DIMLIM
 70
     0
  9
$DIMTIH
 70
     0
  9
$DIMTOH
 70
     0
  9
$DIMSE1
 70
     0
  9
$DIMSE2
 70
     0
  9
$DIMTAD
 70
     1
  9
$DIMZIN
 70
     8
  9
$DIMBLK
  1

  9
$DIMASO
 70
     1
  9
$DIMSHO
 70
     1
  9
$DIMPOST
  1

  9
$DIMAPOST
  1

  9
$DIMALT
 70
     0
  9
$DIMALTD
 70
     3
  9
$DIMALTF
 40
0.03937007874016
  9
$DIMLFAC
 40
1.0
  9
$DIMTOFL
 70
     1
  9
$DIMTVP
 40
0.0
  9
$DIMTIX
 70
     0
  9
$DIMSOXD
 70
     0
  9
$DIMSAH
 70
     0
  9
$DIMBLK1
  1

  9
$DIMBLK2
  1

  9
$DIMSTYLE
  2
ISO-25
  9
$DIMCLRD
 70
     0
  9
$DIMCLRE
 70
     0
  9
$DIMCLRT
 70
     0
  9
$DIMTFAC
 40
1.0
  9
$DIMGAP
 40
0.625
  9
$DIMJUST
 70
     0
  9
$DIMSD1
 70
     0
  9
$DIMSD2
 70
     0
  9
$DIMTOLJ
 70
     0
  9
$DIMTZIN
 70
     8
  9
$DIMALTZ
 70
     0
  9
$DIMALTTZ
 70
     0
  9
$DIMUPT
 70
     0
  9
$DIMDEC
 70
     2
  9
$DIMTDEC
 70
     2
  9
$DIMALTU
 70
     2
  9
$DIMALTTD
 70
     3
  9
$DIMTXSTY
  7
Standard
  9
$DIMAUNIT
 70
     0
  9
$DIMADEC
 70
     0
  9
$DIMALTRND
 40
0.0
  9
$DIMAZIN
 70
     0
  9
$DIMDSEP
 70
    44
  9
$DIMATFIT
 70
     3
  9
$DIMFRAC
 70
     0
  9
$DIMLDRBLK
  1

  9
$DIMLUNIT
 70
     2
  9
$DIMLWD
 70
    -2
  9
$DIMLWE
 70
    -2
  9
$DIMTMOVE
 70
     0
  9
$DIMFXL
 40
1.0
  9
$DIMFXLON
 70
     0
  9
$DIMJOGANG
 40
0.7853981633974483
  9
$DIMTFILL
 70
     0
  9
$DIMTFILLCLR
 70
     0
  9
$DIMARCSYM
 70
     0
  9
$DIMLTYPE
  6

  9
$DIMLTEX1
  6

  9
$DIMLTEX2
  6

  9
$DIMTXTDIRECTION
 70
     0
  9
$LUNITS
 70
     2
  9
$LUPREC
 70
     4
  9
$SKETCHINC
 40
1.0
  9
$FILLETRAD
 40
10.0
  9
$AUNITS
 70
     0
  9
$AUPREC
 70
     0
  9
$MENU
  1
.
  9
$ELEVATION
 40
0.0
  9
$PELEVATION
 40
0.0
  9
$THICKNESS
 40
0.0
  9
$LIMCHECK
 70
     0
  9
$CHAMFERA
 40
10.0
  9
$CHAMFERB
 40
10.0
  9
$CHAMFERC
 40
20.0
  9
$CHAMFERD
 40
0.0
  9
$SKPOLY
 70
     0
  9
$TDCREATE
 40
1800766.076840266
  9
$TDUCREATE
 40
1800765.701840278
  9
$TDUPDATE
 40
2458202.701840266
  9
$TDUUPDATE
 40
2458202.326840278
  9
$TDINDWG
 40
0.0000000116
  9
$TDUSRTIMER
 40
0.0000000116
  9
$USRTIMER
 70
     1
  9
$ANGBASE
 50
0.0
  9
$ANGDIR
 70
     0
  9
$PDMODE
 70
     0
  9
$PDSIZE
 40
0.0
  9
$PLINEWID
 40
0.0
  9
$SPLFRAME
 70
     0
  9
$SPLINETYPE
 70
     6
  9
$SPLINESEGS
 70
     8
  9
$HANDSEED
  5
197
  9
$SURFTAB1
 70
     6
  9
$SURFTAB2
 70
     6
  9
$SURFTYPE
 70
     6
  9
$SURFU
 70
     6
  9
$SURFV
 70
     6
  9
$UCSBASE
  2

  9
$UCSNAME
  2

  9
$UCSORG
 10
0.0
 20
0.0
 30
0.0
  9
$UCSXDIR
 10
1.0
 20
0.0
 30
0.0
  9
$UCSYDIR
 10
0.0
 20
1.0
 30
0.0
  9
$UCSORTHOREF
  2

  9
$UCSORTHOVIEW
 70
     0
  9
$UCSORGTOP
 10
0.0
 20
0.0
 30
0.0
  9
$UCSORGBOTTOM
 10
0.0
 20
0.0
 30
0.0
  9
$UCSORGLEFT
 10
0.0
 20
0.0
 30
0.0
  9
$UCSORGRIGHT
 10
0.0
 20
0.0
 30
0.0
  9
$UCSORGFRONT
 10
0.0
 20
0.0
 30
0.0
  9
$UCSORGBACK
 10
0.0
 20
0.0
 30
0.0
  9
$PUCSBASE
  2

  9
$PUCSNAME
  2

  9
$PUCSORG
 10
0.0
 20
0.0
 30
0.0
  9
$PUCSXDIR
 10
1.0
 20
0.0
 30
0.0
  9
$PUCSYDIR
 10
0.0
 20
1.0
 30
0.0
  9
$PUCSORTHOREF
  2

  9
$PUCSORTHOVIEW
 70
     0
  9
$PUCSORGTOP
 10
0.0
 20
0.0
 30
0.0
  9
$PUCSORGBOTTOM
 10
0.0
 20
0.0
 30
0.0
  9
$PUCSORGLEFT
 10
0.0
 20
0.0
 30
0.0
  9
$PUCSORGRIGHT
 10
0.0
 20
0.0
 30
0.0
  9
$PUCSORGFRONT
 10
0.0
 20
0.0
 30
0.0
  9
$PUCSORGBACK
 10
0.0
 20
0.0
 30
0.0
  9
$USERI1
 70
     0
  9
$USERI2
 70
     0
  9
$USERI3
 70
     0
  9
$USERI4
 70
     0
  9
$USERI5
 70
     0
  9
$USERR1
 40
0.0
  9
$USERR2
 40
0.0
  9
$USERR3
 40
0.0
  9
$USERR4
 40
0.0
  9
$USERR5
 40
0.0
  9
$WORLDVIEW
 70
     1
  9
$SHADEDGE
 70
     3
  9
$SHADEDIF
 70
    70
  9
$TILEMODE
 70
     1
  9
$MAXACTVP
 70
    64
  9
$PINSBASE
 10
0.0
 20
0.0
 30
0.0
  9
$PLIMCHECK
 70
     0
  9
$PEXTMIN
 10
1.000000000000000E+20
 20
1.000000000000000E+20
 30
1.000000000000000E+20
  9
$PEXTMAX
 10
-1.000000000000000E+20
 20
-1.000000000000000E+20
 30
-1.000000000000000E+20
  9
$PLIMMIN
 10
0.0
 20
0.0
  9
$PLIMMAX
 10
420.0
 20
297.0
  9
$UNITMODE
 70
     0
  9
$VISRETAIN
 70
     1
  9
$PLINEGEN
 70
     0
  9
$PSLTSCALE
 70
     1
  9
$TREEDEPTH
 70
  3020
  9
$CMLSTYLE
  2
Standard
  9
$CMLJUST
 70
     0
  9
$CMLSCALE
 40
20.0
  9
$PROXYGRAPHICS
 70
     1
  9
$MEASUREMENT
 70
     1
  9
$CELWEIGHT
370
    -1
  9
$ENDCAPS
280
     0
  9
$JOINSTYLE
280
     0
  9
$LWDISPLAY
290
     0
  9
$INSUNITS
 70
     4
  9
$HYPERLINKBASE
  1

  9
$STYLESHEET
  1

  9
$XEDIT
290
     1
  9
$CEPSNTYPE
380
     0
  9
$PSTYLEMODE
290
     1
  9
$FINGERPRINTGUID
  2
{C08528D1-B1B1-2A79-A029-32B7F4707D2C}
  9
$VERSIONGUID
  2
{FAEB1C32-E019-11D5-929B-00C0DF256EC4}
  9
$EXTNAMES
290
     1
  9
$PSVPSCALE
 40
0.0
  9
$OLESTARTUP
290
     0
  9
$SORTENTS
280
   127
  9
$INDEXCTL
280
     0
  9
$HIDETEXT
280
     1
  9
$XCLIPFRAME
280
     2
  9
$HALOGAP
280
     0
  9
$OBSCOLOR
 70
   257
  9
$OBSLTYPE
280
     0
  9
$INTERSECTIONDISPLAY
280
     0
  9
$INTERSECTIONCOLOR
 70
   257
  9
$DIMASSOC
280
     2
  9
$PROJECTNAME
  1

  9
$CAMERADISPLAY
290
     0
  9
$LENSLENGTH
 40
50.0
  9
$CAMERAHEIGHT
 40
0.0
  9
$STEPSPERSEC
 40
2.0
  9
$STEPSIZE
 40
6.0
  9
$3DDWFPREC
 40
2.0
  9
$PSOLWIDTH
 40
5.0
  9
$PSOLHEIGHT
 40
80.0
  9
$LOFTANG1
 40
1.570796326794897
  9
$LOFTANG2
 40
1.570796326794897
  9
$LOFTMAG1
 40
0.0
  9
$LOFTMAG2
 40
0.0
  9
$LOFTPARAM
 70
     7
  9
$LOFTNORMALS
280
     1
  9
$LATITUDE
 40
37.795
  9
$LONGITUDE
 40
-122.394
  9
$NORTHDIRECTION
 40
0.0
  9
$TIMEZONE
 70
 -8000
  9
$LIGHTGLYPHDISPLAY
280
     1
  9
$TILEMODELIGHTSYNCH
280
     1
  9
$SOLIDHIST
280
     1
  9
$SHOWHIST
280
     1
  9
$DWFFRAME
280
     2
  9
$DGNFRAME
280
     2
  9
$REALWORLDSCALE
290
     1
  9
$INTERFERECOLOR
 62
   256
  9
$CSHADOW
280
     0
  9
$SHADOWPLANELOCATION
 40
0.0
  0
ENDSEC
  0
SECTION
  2
CLASSES
  0
CLASS
  1
ACDBDICTIONARYWDFLT
  2
AcDbDictionaryWithDefault
  3
ObjectDBX Classes
 90
        0
 91
        4
280
     0
281
     0
  0
CLASS
  1
VISUALSTYLE
  2
AcDbVisualStyle
  3
ObjectDBX Classes
 90
     4095
 91
        4
280
     0
281
     0
  0
CLASS
  1
MATERIAL
  2
AcDbMaterial
  3
ObjectDBX Classes
 90
     1153
 91
        4
280
     0
281
     0
  0
ENDSEC
  0
SECTION
  2
TABLES
  0
TABLE
  2
VPORT
  5
8
330
0
100
AcDbSymbolTable
 70
     1
  0
VPORT
  5
29
330
8
100
AcDbSymbolTableRecord
100
AcDbViewportTableRecord
  2
*Active
 70
     0
 10
0.0
 20
0.0
 11
1.0
 21
1.0
 12
652.6916983955205
 22
1150.443962006651
 13
0.0
 23
0.0
 14
10.0
 24
10.0
 15
10.0
 25
10.0
 16
0.0
 26
0.0
 36
1.0
 17
0.0
 27
0.0
 37
0.0
 40
220.6206319847813
 41
2.000841104247716
 42
50.0
 43
0.0
 44
0.0
 50
0.0
 51
0.0
 71
     0
 72
   100
 73
     1
 74
     3
 75
     0
 76
     0
 77
     0
 78
     0
281
     0
 65
     1
110
0.0
120
0.0
130
0.0
111
1.0
121
0.0
131
0.0
112
0.0
122
1.0
132
0.0
 79
     0
146
0.0
 60
     3
 61
     5
292
     1
282
     1
141
0.0
142
0.0
 63
   250
  0
ENDTAB
  0
TABLE
  2
LTYPE
  5
5
330
0
100
AcDbSymbolTable
 70
    11
  0
LTYPE
  5
14
330
5
100
AcDbSymbolTableRecord
100
AcDbLinetypeTableRecord
  2
ByBlock
 70
     0
  3

 72
    65
 73
     0
 40
0.0
  0
LTYPE
  5
15
330
5
100
AcDbSymbolTableRecord
100
AcDbLinetypeTableRecord
  2
ByLayer
 70
     0
  3

 72
    65
 73
     0
 40
0.0
  0
LTYPE
  5
16
330
5
100
AcDbSymbolTableRecord
100
AcDbLinetypeTableRecord
  2
Continuous
 70
     0
  3
Solid line
 72
    65
 73
     0
 40
0.0
  0
LTYPE
  5
44
330
5
100
AcDbSymbolTableRecord
100
AcDbLinetypeTableRecord
  2
BORDER
 70
     0
  3
__ __ . __ __ . __ 
 72
    65
 73
     6
 40
0.875
 49
0.25
 74
     0
 49
-0.125
 74
     0
 49
0.25
 74
     0
 49
-0.125
 74
     0
 49
0.0
 74
     0
 49
-0.125
 74
     0
  0
LTYPE
  5
45
330
5
100
AcDbSymbolTableRecord
100
AcDbLinetypeTableRecord
  2
CENTER
 70
     0
  3
___ _ ___ _ ___ _ _
 72
    65
 73
     4
 40
1.125
 49
0.75
 74
     0
 49
-0.125
 74
     0
 49
0.125
 74
     0
 49
-0.125
 74
     0
  0
LTYPE
  5
46
330
5
100
AcDbSymbolTableRecord
100
AcDbLinetypeTableRecord
  2
DASHDOT
 70
     0
  3
_._._._._._._._._._
 72
    65
 73
     4
 40
0.5
 49
0.25
 74
     0
 49
-0.125
 74
     0
 49
0.0
 74
     0
 49
-0.125
 74
     0
  0
LTYPE
  5
47
330
5
100
AcDbSymbolTableRecord
100
AcDbLinetypeTableRecord
  2
DASHED
 70
     0
  3
_ _ _ _ _ _ _ _ _ _
 72
    65
 73
     2
 40
0.375
 49
0.25
 74
     0
 49
-0.125
 74
     0
  0
LTYPE
  5
48
330
5
100
AcDbSymbolTableRecord
100
AcDbLinetypeTableRecord
  2
DIVIDE
 70
     0
  3
__..__..__..__..__.
 72
    65
 73
     6
 40
0.625
 49
0.25
 74
     0
 49
-0.125
 74
     0
 49
0.0
 74
     0
 49
-0.125
 74
     0
 49
0.0
 74
     0
 49
-0.125
 74
     0
  0
LTYPE
  5
49
330
5
100
AcDbSymbolTableRecord
100
AcDbLinetypeTableRecord
  2
DOT
 70
     0
  3
...................
 72
    65
 73
     2
 40
0.125
 49
0.0
 74
     0
 49
-0.125
 74
     0
  0
LTYPE
  5
4A
330
5
100
AcDbSymbolTableRecord
100
AcDbLinetypeTableRecord
  2
HIDDEN
 70
     0
  3
__ __ __ __ __ __ _
 72
    65
 73
     2
 40
0.1875
 49
0.125
 74
     0
 49
-0.0625
 74
     0
  0
LTYPE
  5
4B
330
5
100
AcDbSymbolTableRecord
100
AcDbLinetypeTableRecord
  2
PHANTOM
 70
     0
  3
___ _ _ ___ _ _ ___
 72
    65
 73
     6
 40
1.25
 49
0.625
 74
     0
 49
-0.125
 74
     0
 49
0.125
 74
     0
 49
-0.125
 74
     0
 49
0.125
 74
     0
 49
-0.125
 74
     0
  0
LTYPE
  5
4C
330
5
100
AcDbSymbolTableRecord
100
AcDbLinetypeTableRecord
  2
CUTTING
 70
     0
  3
________ _ _ ______
 72
    65
 73
     6
 40
1.4675
 49
1.0
 74
     0
 49
-0.0725
 74
     0
 49
0.125
 74
     0
 49
-0.0725
 74
     0
 49
0.125
 74
     0
 49
-0.0725
 74
     0
  0
LTYPE
  5
4D
330
5
100
AcDbSymbolTableRecord
100
AcDbLinetypeTableRecord
  2
STITCH
 70
     0
  3
_ _ _ _ _ _ _ _ _ _
 72
    65
 73
     2
 40
0.145
 49
0.0725
 74
     0
 49
-0.0725
 74
     0
  0
ENDTAB
  0
TABLE
  2
LAYER
  5
2
330
0
100
AcDbSymbolTable
 70
     5
  0
LAYER
  5
10
330
2
100
AcDbSymbolTableRecord
100
AcDbLayerTableRecord
  2
0
 70
     0
 62
     7
  6
Continuous
370
    -3
390
F
347
3E
  0
LAYER
  5
40
330
2
100
AcDbSymbolTableRecord
100
AcDbLayerTableRecord
  2
Layer1
 70
     0
 62
     7
420
 16777215
  6
Continuous
370
    -3
390
F
347
3E
  0
LAYER
  5
41
330
2
100
AcDbSymbolTableRecord
100
AcDbLayerTableRecord
  2
DXF_box-20180324_000352_959227
 70
     0
 62
     7
420
 16777215
  6
Continuous
370
    -3
390
F
347
3E
  0
LAYER
  5
42
330
2
100
AcDbSymbolTableRecord
100
AcDbLayerTableRecord
  2
DXF_box-20180324_000352_959227_Model
 70
     0
 62
     7
420
 16777215
  6
Continuous
370
    -3
390
F
347
3E
  0
LAYER
  5
43
330
2
100
AcDbSymbolTableRecord
100
AcDbLayerTableRecord
  2
DXF_box-20180324_000352_959227_Model_0
 70
     0
 62
     7
420
 16777215
  6
Continuous
370
    -3
390
F
347
3E
  0
ENDTAB
  0
TABLE
  2
STYLE
  5
3
330
0
100
AcDbSymbolTable
 70
     1
  0
STYLE
  5
11
330
3
100
AcDbSymbolTableRecord
100
AcDbTextStyleTableRecord
  2
Standard
 70
     0
 40
0.0
 41
1.0
 50
0.0
 71
     0
 42
2.5
  3
txt
  4

  0
ENDTAB
  0
TABLE
  2
VIEW
  5
6
330
0
100
AcDbSymbolTable
 70
     0
  0
ENDTAB
  0
TABLE
  2
UCS
  5
7
330
0
100
AcDbSymbolTable
 70
     0
  0
ENDTAB
  0
TABLE
  2
APPID
  5
9
330
0
100
AcDbSymbolTable
 70
     2
  0
APPID
  5
12
330
9
100
AcDbSymbolTableRecord
100
AcDbRegAppTableRecord
  2
ACAD
 70
     0
  0
APPID
  5
3F
330
9
100
AcDbSymbolTableRecord
100
AcDbRegAppTableRecord
  2
Encore Software ViaCAD
 70
     0
  0
ENDTAB
  0
TABLE
  2
DIMSTYLE
  5
A
330
0
100
AcDbSymbolTable
 70
     1
100
AcDbDimStyleTable
  0
DIMSTYLE
105
27
330
A
100
AcDbSymbolTableRecord
100
AcDbDimStyleTableRecord
  2
ISO-25
 70
     0
 41
2.5
 42
0.625
 43
3.75
 44
1.25
 73
     0
 74
     0
 77
     1
 78
     8
140
2.5
141
2.5
143
0.03937007874016
147
0.625
171
     3
172
     1
178
     0
271
     2
272
     2
274
     3
278
    44
283
     0
284
     8
340
11
  0
ENDTAB
  0
TABLE
  2
BLOCK_RECORD
  5
1
330
0
100
AcDbSymbolTable
 70
     1
  0
BLOCK_RECORD
  5
1F
330
1
100
AcDbSymbolTableRecord
100
AcDbBlockTableRecord
  2
*Model_Space
340
22
 70
     0
280
     1
281
     0
  0
BLOCK_RECORD
  5
1B
330
1
100
AcDbSymbolTableRecord
100
AcDbBlockTableRecord
  2
*Paper_Space
340
1E
 70
     0
280
     1
281
     0
  0
BLOCK_RECORD
  5
23
330
1
100
AcDbSymbolTableRecord
100
AcDbBlockTableRecord
  2
*Paper_Space0
340
26
 70
     0
280
     1
281
     0
  0
ENDTAB
  0
ENDSEC
  0
SECTION
  2
BLOCKS
  0
BLOCK
  5
20
330
1F
100
AcDbEntity
  8
0
100
AcDbBlockBegin
  2
*Model_Space
 70
     0
 10
0.0
 20
0.0
 30
0.0
  3
*Model_Space
  1

  0
ENDBLK
  5
21
330
1F
100
AcDbEntity
  8
0
100
AcDbBlockEnd
  0
BLOCK
  5
1C
330
1B
100
AcDbEntity
 67
     1
  8
0
100
AcDbBlockBegin
  2
*Paper_Space
 70
     0
 10
0.0
 20
0.0
 30
0.0
  3
*Paper_Space
  1

  0
ENDBLK
  5
1D
330
1B
100
AcDbEntity
 67
     1
  8
0
100
AcDbBlockEnd
  0
BLOCK
  5
24
330
23
100
AcDbEntity
  8
0
100
AcDbBlockBegin
  2
*Paper_Space0
 70
     0
 10
0.0
 20
0.0
 30
0.0
  3
*Paper_Space0
  1

  0
ENDBLK
  5
25
330
23
100
AcDbEntity
  8
0
100
AcDbBlockEnd
  0
ENDSEC
  0
SECTION
  2
ENTITIES
  0
LINE
  5
4E
330
1F
100
AcDbEntity
  8
DXF_box-20180324_000352_959227_Model_0
 62
   178
420
        0
 48
25.39999961853027
370
   200
100
AcDbLine
 10
728.884464043353
 20
1243.579140741167
 30
0.0
 11
739.7685309119521
 21
1243.579140741167
 31
0.0
  0
LINE
  5
4F
330
1F
100
AcDbEntity
  8
DXF_box-20180324_000352_959227_Model_0
 62
   178
420
        0
 48
25.39999961853027
370
   200
100
AcDbLine
 10
739.7685309119521
 20
1243.579140741167
 30
0.0
 11
739.7685309119521
 21
1239.579342316029
 31
0.0
  0
LINE
  5
50
330
1F
100
AcDbEntity
  8
DXF_box-20180324_000352_959227_Model_0
 62
   178
420
        0
 48
25.39999961853027
370
   200
100
AcDbLine
 10
739.7685309119521
 20
1239.579342316029
 30
0.0
 11
750.3526128985865
 21
1239.579342316029
 31
0.0
  0
LINE
  5
51
330
1F
100
AcDbEntity
  8
DXF_box-20180324_000352_959227_Model_0
 62
   178
420
        0
 48
25.39999961853027
370
   200
100
AcDbLine
 10
750.3526128985865
 20
1243.579140741167
 30
0.0
 11
750.3526128985865
 21
1239.579342316029
 31
0.0
  0
LINE
  5
52
330
1F
100
AcDbEntity
  8
DXF_box-20180324_000352_959227_Model_0
 62
   178
420
        0
 48
25.39999961853027
370
   200
100
AcDbLine
 10
750.3526128985865
 20
1243.579140741167
 30
0.0
 11
761.3366747278405
 21
1243.579140741167
 31
0.0
  0
LINE
  5
53
330
1F
100
AcDbEntity
  8
DXF_box-20180324_000352_959227_Model_0
 62
   178
420
        0
 48
25.39999961853027
370
   200
100
AcDbLine
 10
761.3366747278405
 20
1243.579140741167
 30
0.0
 11
761.3366747278405
 21
1239.579342316029
 31
0.0
  0
LINE
  5
54
330
1F
100
AcDbEntity
  8
DXF_box-20180324_000352_959227_Model_0
 62
   178
420
        0
 48
25.39999961853027
370
   200
100
AcDbLine
 10
761.3366747278405
 20
1239.579342316029
 30
0.0
 11
771.9207567144749
 21
1239.579342316029
 31
0.0
  0
LINE
  5
55
330
1F
100
AcDbEntity
  8
DXF_box-20180324_000352_959227_Model_0
 62
   178
420
        0
 48
25.39999961853027
370
   200
100
AcDbLine
 10
771.9207567144749
 20
1243.579140741167
 30
0.0
 11
771.9207567144749
 21
1239.579342316029
 31
0.0
  0
LINE
  5
56
330
1F
100
AcDbEntity
  8
DXF_box-20180324_000352_959227_Model_0
 62
   178
420
        0
 48
25.39999961853027
370
   200
100
AcDbLine
 10
771.9207567144749
 20
1243.579140741167
 30
0.0
 11
782.904818543729
 21
1243.579140741167
 31
0.0
  0
LINE
  5
57
330
1F
100
AcDbEntity
  8
DXF_box-20180324_000352_959227_Model_0
 62
   178
420
        0
 48
25.39999961853027
370
   200
100
AcDbLine
 10
782.904818543729
 20
1243.579140741167
 30
0.0
 11
782.904818543729
 21
1239.579342316029
 31
0.0
  0
LINE
  5
58
330
1F
100
AcDbEntity
  8
DXF_box-20180324_000352_959227_Model_0
 62
   178
420
        0
 48
25.39999961853027
370
   200
100
AcDbLine
 10
782.904818543729
 20
1239.579342316029
 30
0.0
 11
793.4889005303633
 21
1239.579342316029
 31
0.0
  0
LINE
  5
59
330
1F
100
AcDbEntity
  8
DXF_box-20180324_000352_959227_Model_0
 62
   178
420
        0
 48
25.39999961853027
370
   200
100
AcDbLine
 10
793.4889005303633
 20
1243.579140741167
 30
0.0
 11
793.4889005303633
 21
1239.579342316029
 31
0.0
  0
LINE
  5
5A
330
1F
100
AcDbEntity
  8
DXF_box-20180324_000352_959227_Model_0
 62
   178
420
        0
 48
25.39999961853027
370
   200
100
AcDbLine
 10
793.4889005303633
 20
1243.579140741167
 30
0.0
 11
804.4729623596172
 21
1243.579140741167
 31
0.0
  0
LINE
  5
5B
330
1F
100
AcDbEntity
  8
DXF_box-20180324_000352_959227_Model_0
 62
   178
420
        0
 48
25.39999961853027
370
   200
100
AcDbLine
 10
804.4729623596172
 20
1243.579140741167
 30
0.0
 11
804.4729623596172
 21
1239.579342316029
 31
0.0
  0
LINE
  5
5C
330
1F
100
AcDbEntity
  8
DXF_box-20180324_000352_959227_Model_0
 62
   178
420
        0
 48
25.39999961853027
370
   200
100
AcDbLine
 10
804.4729623596172
 20
1239.579342316029
 30
0.0
 11
815.0570443462517
 21
1239.579342316029
 31
0.0
  0
LINE
  5
5D
330
1F
100
AcDbEntity
  8
DXF_box-20180324_000352_959227_Model_0
 62
   178
420
        0
 48
25.39999961853027
370
   200
100
AcDbLine
 10
815.0570443462517
 20
1243.579140741167
 30
0.0
 11
815.0570443462517
 21
1239.579342316029
 31
0.0
  0
LINE
  5
5E
330
1F
100
AcDbEntity
  8
DXF_box-20180324_000352_959227_Model_0
 62
   178
420
        0
 48
25.39999961853027
370
   200
100
AcDbLine
 10
815.0570443462517
 20
1243.579140741167
 30
0.0
 11
826.0411061755055
 21
1243.579140741167
 31
0.0
  0
LINE
  5
5F
330
1F
100
AcDbEntity
  8
DXF_box-20180324_000352_959227_Model_0
 62
   178
420
        0
 48
25.39999961853027
370
   200
100
AcDbLine
 10
826.0411061755055
 20
1243.579140741167
 30
0.0
 11
826.0411061755055
 21
1239.579342316029
 31
0.0
  0
LINE
  5
60
330
1F
100
AcDbEntity
  8
DXF_box-20180324_000352_959227_Model_0
 62
   178
420
        0
 48
25.39999961853027
370
   200
100
AcDbLine
 10
826.0411061755055
 20
1239.579342316029
 30
0.0
 11
836.6251881621399
 21
1239.579342316029
 31
0.0
  0
LINE
  5
61
330
1F
100
AcDbEntity
  8
DXF_box-20180324_000352_959227_Model_0
 62
   178
420
        0
 48
25.39999961853027
370
   200
100
AcDbLine
 10
836.6251881621399
 20
1243.579140741167
 30
0.0
 11
836.6251881621399
 21
1239.579342316029
 31
0.0
  0
LINE
  5
62
330
1F
100
AcDbEntity
  8
DXF_box-20180324_000352_959227_Model_0
 62
   178
420
        0
 48
25.39999961853027
370
   200
100
AcDbLine
 10
836.6251881621399
 20
1243.579140741167
 30
0.0
 11
847.6092499913941
 21
1243.579140741167
 31
0.0
  0
LINE
  5
63
330
1F
100
AcDbEntity
  8
DXF_box-20180324_000352_959227_Model_0
 62
   178
420
        0
 48
25.39999961853027
370
   200
100
AcDbLine
 10
847.6092499913941
 20
1243.579140741167
 30
0.0
 11
847.6092499913941
 21
1239.579342316029
 31
0.0
  0
LINE
  5
64
330
1F
100
AcDbEntity
  8
DXF_box-20180324_000352_959227_Model_0
 62
   178
420
        0
 48
25.39999961853027
370
   200
100
AcDbLine
 10
847.6092499913941
 20
1239.579342316029
 30
0.0
 11
858.1933319780284
 21
1239.579342316029
 31
0.0
  0
LINE
  5
65
330
1F
100
AcDbEntity
  8
DXF_box-20180324_000352_959227_Model_0
 62
   178
420
        0
 48
25.39999961853027
370
   200
100
AcDbLine
 10
858.1933319780284
 20
1243.579140741167
 30
0.0
 11
858.1933319780284
 21
1239.579342316029
 31
0.0
  0
LINE
  5
66
330
1F
100
AcDbEntity
  8
DXF_box-20180324_000352_959227_Model_0
 62
   178
420
        0
 48
25.39999961853027
370
   200
100
AcDbLine
 10
858.1933319780284
 20
1243.579140741167
 30
0.0
 11
865.0776004214888
 21
1243.579140741167
 31
0.0
  0
LINE
  5
67
330
1F
100
AcDbEntity
  8
DXF_box-20180324_000352_959227_Model_0
 62
   178
420
        0
 48
25.39999961853027
370
   200
100
AcDbLine
 10
728.884464043353
 20
1190.997580127655
 30
0.0
 11
728.884464043353
 21
1201.333901321249
 31
0.0
  0
LINE
  5
68
330
1F
100
AcDbEntity
  8
DXF_box-20180324_000352_959227_Model_0
 62
   178
420
        0
 48
25.39999961853027
370
   200
100
AcDbLine
 10
732.8842624684916
 20
1201.333901321249
 30
0.0
 11
728.884464043353
 21
1201.333901321249
 31
0.0
  0
LINE
  5
69
330
1F
100
AcDbEntity
  8
DXF_box-20180324_000352_959227_Model_0
 62
   178
420
        0
 48
25.39999961853027
370
   200
100
AcDbLine
 10
732.8842624684916
 20
1201.333901321249
 30
0.0
 11
732.8842624684916
 21
1212.070202357463
 31
0.0
  0
LINE
  5
6A
330
1F
100
AcDbEntity
  8
DXF_box-20180324_000352_959227_Model_0
 62
   178
420
        0
 48
25.39999961853027
370
   200
100
AcDbLine
 10
732.8842624684916
 20
1212.070202357463
 30
0.0
 11
728.884464043353
 21
1212.070202357463
 31
0.0
  0
LINE
  5
6B
330
1F
100
AcDbEntity
  8
DXF_box-20180324_000352_959227_Model_0
 62
   178
420
        0
 48
25.39999961853027
370
   200
100
AcDbLine
 10
728.884464043353
 20
1212.070202357463
 30
0.0
 11
728.884464043353
 21
1222.406523551057
 31
0.0
  0
LINE
  5
6C
330
1F
100
AcDbEntity
  8
DXF_box-20180324_000352_959227_Model_0
 62
   178
420
        0
 48
25.39999961853027
370
   200
100
AcDbLine
 10
732.8842624684916
 20
1222.406523551057
 30
0.0
 11
728.884464043353
 21
1222.406523551057
 31
0.0
  0
LINE
  5
6D
330
1F
100
AcDbEntity
  8
DXF_box-20180324_000352_959227_Model_0
 62
   178
420
        0
 48
25.39999961853027
370
   200
100
AcDbLine
 10
732.8842624684916
 20
1222.406523551057
 30
0.0
 11
732.8842624684916
 21
1233.142824586918
 31
0.0
  0
LINE
  5
6E
330
1F
100
AcDbEntity
  8
DXF_box-20180324_000352_959227_Model_0
 62
   178
420
        0
 48
25.39999961853027
370
   200
100
AcDbLine
 10
732.8842624684916
 20
1233.142824586918
 30
0.0
 11
728.884464043353
 21
1233.142824586918
 31
0.0
  0
LINE
  5
6F
330
1F
100
AcDbEntity
  8
DXF_box-20180324_000352_959227_Model_0
 62
   178
420
        0
 48
25.39999961853027
370
   200
100
AcDbLine
 10
728.884464043353
 20
1233.142824586918
 30
0.0
 11
728.884464043353
 21
1243.579140741167
 31
0.0
  0
LINE
  5
70
330
1F
100
AcDbEntity
  8
DXF_box-20180324_000352_959227_Model_0
 62
   178
420
        0
 48
25.39999961853027
370
   200
100
AcDbLine
 10
865.0776004214888
 20
1190.997580127655
 30
0.0
 11
865.0776004214888
 21
1201.333901321249
 31
0.0
  0
LINE
  5
71
330
1F
100
AcDbEntity
  8
DXF_box-20180324_000352_959227_Model_0
 62
   178
420
        0
 48
25.39999961853027
370
   200
100
AcDbLine
 10
869.0773988466276
 20
1201.333901321249
 30
0.0
 11
865.0776004214888
 21
1201.333901321249
 31
0.0
  0
LINE
  5
72
330
1F
100
AcDbEntity
  8
DXF_box-20180324_000352_959227_Model_0
 62
   178
420
        0
 48
25.39999961853027
370
   200
100
AcDbLine
 10
869.0773988466276
 20
1201.333901321249
 30
0.0
 11
869.0773988466276
 21
1212.070202357463
 31
0.0
  0
LINE
  5
73
330
1F
100
AcDbEntity
  8
DXF_box-20180324_000352_959227_Model_0
 62
   178
420
        0
 48
25.39999961853027
370
   200
100
AcDbLine
 10
869.0773988466276
 20
1212.070202357463
 30
0.0
 11
865.0776004214888
 21
1212.070202357463
 31
0.0
  0
LINE
  5
74
330
1F
100
AcDbEntity
  8
DXF_box-20180324_000352_959227_Model_0
 62
   178
420
        0
 48
25.39999961853027
370
   200
100
AcDbLine
 10
865.0776004214888
 20
1212.070202357463
 30
0.0
 11
865.0776004214888
 21
1222.406523551057
 31
0.0
  0
LINE
  5
75
330
1F
100
AcDbEntity
  8
DXF_box-20180324_000352_959227_Model_0
 62
   178
420
        0
 48
25.39999961853027
370
   200
100
AcDbLine
 10
869.0773988466276
 20
1222.406523551057
 30
0.0
 11
865.0776004214888
 21
1222.406523551057
 31
0.0
  0
LINE
  5
76
330
1F
100
AcDbEntity
  8
DXF_box-20180324_000352_959227_Model_0
 62
   178
420
        0
 48
25.39999961853027
370
   200
100
AcDbLine
 10
869.0773988466276
 20
1222.406523551057
 30
0.0
 11
869.0773988466276
 21
1233.142824586918
 31
0.0
  0
LINE
  5
77
330
1F
100
AcDbEntity
  8
DXF_box-20180324_000352_959227_Model_0
 62
   178
420
        0
 48
25.39999961853027
370
   200
100
AcDbLine
 10
869.0773988466276
 20
1233.142824586918
 30
0.0
 11
865.0776004214888
 21
1233.142824586918
 31
0.0
  0
LINE
  5
78
330
1F
100
AcDbEntity
  8
DXF_box-20180324_000352_959227_Model_0
 62
   178
420
        0
 48
25.39999961853027
370
   200
100
AcDbLine
 10
865.0776004214888
 20
1233.142824586918
 30
0.0
 11
865.0776004214888
 21
1243.579140741167
 31
0.0
  0
LINE
  5
79
330
1F
100
AcDbEntity
  8
DXF_box-20180324_000352_959227_Model_0
 62
   178
420
        0
 48
25.39999961853027
370
   200
100
AcDbLine
 10
436.3059979444132
 20
1042.578532022465
 30
0.0
 11
447.190064812977
 21
1042.578532022465
 31
0.0
  0
LINE
  5
7A
330
1F
100
AcDbEntity
  8
DXF_box-20180324_000352_959227_Model_0
 62
   178
420
        0
 48
25.39999961853027
370
   200
100
AcDbLine
 10
447.190064812977
 20
1046.578330447604
 30
0.0
 11
447.190064812977
 21
1042.578532022465
 31
0.0
  0
LINE
  5
7B
330
1F
100
AcDbEntity
  8
DXF_box-20180324_000352_959227_Model_0
 62
   178
420
        0
 48
25.39999961853027
370
   200
100
AcDbLine
 10
447.190064812977
 20
1046.578330447604
 30
0.0
 11
457.7741467996467
 21
1046.578330447604
 31
0.0
  0
LINE
  5
7C
330
1F
100
AcDbEntity
  8
DXF_box-20180324_000352_959227_Model_0
 62
   178
420
        0
 48
25.39999961853027
370
   200
100
AcDbLine
 10
457.7741467996467
 20
1046.578330447604
 30
0.0
 11
457.7741467996467
 21
1042.578532022465
 31
0.0
  0
LINE
  5
7D
330
1F
100
AcDbEntity
  8
DXF_box-20180324_000352_959227_Model_0
 62
   178
420
        0
 48
25.39999961853027
370
   200
100
AcDbLine
 10
457.7741467996467
 20
1042.578532022465
 30
0.0
 11
468.7582086289711
 21
1042.578532022465
 31
0.0
  0
LINE
  5
7E
330
1F
100
AcDbEntity
  8
DXF_box-20180324_000352_959227_Model_0
 62
   178
420
        0
 48
25.39999961853027
370
   200
100
AcDbLine
 10
468.7582086289711
 20
1046.578330447604
 30
0.0
 11
468.7582086289711
 21
1042.578532022465
 31
0.0
  0
LINE
  5
7F
330
1F
100
AcDbEntity
  8
DXF_box-20180324_000352_959227_Model_0
 62
   178
420
        0
 48
25.39999961853027
370
   200
100
AcDbLine
 10
468.7582086289711
 20
1046.578330447604
 30
0.0
 11
479.3422906156056
 21
1046.578330447604
 31
0.0
  0
LINE
  5
80
330
1F
100
AcDbEntity
  8
DXF_box-20180324_000352_959227_Model_0
 62
   178
420
        0
 48
25.39999961853027
370
   200
100
AcDbLine
 10
479.3422906156056
 20
1046.578330447604
 30
0.0
 11
479.3422906156056
 21
1042.578532022465
 31
0.0
  0
LINE
  5
81
330
1F
100
AcDbEntity
  8
DXF_box-20180324_000352_959227_Model_0
 62
   178
420
        0
 48
25.39999961853027
370
   200
100
AcDbLine
 10
479.3422906156056
 20
1042.578532022465
 30
0.0
 11
490.3263524448597
 21
1042.578532022465
 31
0.0
  0
LINE
  5
82
330
1F
100
AcDbEntity
  8
DXF_box-20180324_000352_959227_Model_0
 62
   178
420
        0
 48
25.39999961853027
370
   200
100
AcDbLine
 10
490.3263524448597
 20
1046.578330447604
 30
0.0
 11
490.3263524448597
 21
1042.578532022465
 31
0.0
  0
LINE
  5
83
330
1F
100
AcDbEntity
  8
DXF_box-20180324_000352_959227_Model_0
 62
   178
420
        0
 48
25.39999961853027
370
   200
100
AcDbLine
 10
490.3263524448597
 20
1046.578330447604
 30
0.0
 11
500.910434431494
 21
1046.578330447604
 31
0.0
  0
LINE
  5
84
330
1F
100
AcDbEntity
  8
DXF_box-20180324_000352_959227_Model_0
 62
   178
420
        0
 48
25.39999961853027
370
   200
100
AcDbLine
 10
500.910434431494
 20
1046.578330447604
 30
0.0
 11
500.910434431494
 21
1042.578532022465
 31
0.0
  0
LINE
  5
85
330
1F
100
AcDbEntity
  8
DXF_box-20180324_000352_959227_Model_0
 62
   178
420
        0
 48
25.39999961853027
370
   200
100
AcDbLine
 10
500.910434431494
 20
1042.578532022465
 30
0.0
 11
511.894496260748
 21
1042.578532022465
 31
0.0
  0
LINE
  5
86
330
1F
100
AcDbEntity
  8
DXF_box-20180324_000352_959227_Model_0
 62
   178
420
        0
 48
25.39999961853027
370
   200
100
AcDbLine
 10
511.894496260748
 20
1046.578330447604
 30
0.0
 11
511.894496260748
 21
1042.578532022465
 31
0.0
  0
LINE
  5
87
330
1F
100
AcDbEntity
  8
DXF_box-20180324_000352_959227_Model_0
 62
   178
420
        0
 48
25.39999961853027
370
   200
100
AcDbLine
 10
511.894496260748
 20
1046.578330447604
 30
0.0
 11
522.4785782473825
 21
1046.578330447604
 31
0.0
  0
LINE
  5
88
330
1F
100
AcDbEntity
  8
DXF_box-20180324_000352_959227_Model_0
 62
   178
420
        0
 48
25.39999961853027
370
   200
100
AcDbLine
 10
522.4785782473825
 20
1046.578330447604
 30
0.0
 11
522.4785782473825
 21
1042.578532022465
 31
0.0
  0
LINE
  5
89
330
1F
100
AcDbEntity
  8
DXF_box-20180324_000352_959227_Model_0
 62
   178
420
        0
 48
25.39999961853027
370
   200
100
AcDbLine
 10
522.4785782473825
 20
1042.578532022465
 30
0.0
 11
533.4626400762837
 21
1042.578532022465
 31
0.0
  0
LINE
  5
8A
330
1F
100
AcDbEntity
  8
DXF_box-20180324_000352_959227_Model_0
 62
   178
420
        0
 48
25.39999961853027
370
   200
100
AcDbLine
 10
533.4626400762837
 20
1046.578330447604
 30
0.0
 11
533.4626400762837
 21
1042.578532022465
 31
0.0
  0
LINE
  5
8B
330
1F
100
AcDbEntity
  8
DXF_box-20180324_000352_959227_Model_0
 62
   178
420
        0
 48
25.39999961853027
370
   200
100
AcDbLine
 10
533.4626400762837
 20
1046.578330447604
 30
0.0
 11
544.0467220632706
 21
1046.578330447604
 31
0.0
  0
LINE
  5
8C
330
1F
100
AcDbEntity
  8
DXF_box-20180324_000352_959227_Model_0
 62
   178
420
        0
 48
25.39999961853027
370
   200
100
AcDbLine
 10
544.0467220632706
 20
1046.578330447604
 30
0.0
 11
544.0467220632706
 21
1042.578532022465
 31
0.0
  0
LINE
  5
8D
330
1F
100
AcDbEntity
  8
DXF_box-20180324_000352_959227_Model_0
 62
   178
420
        0
 48
25.39999961853027
370
   200
100
AcDbLine
 10
544.0467220632706
 20
1042.578532022465
 30
0.0
 11
555.030783892172
 21
1042.578532022465
 31
0.0
  0
LINE
  5
8E
330
1F
100
AcDbEntity
  8
DXF_box-20180324_000352_959227_Model_0
 62
   178
420
        0
 48
25.39999961853027
370
   200
100
AcDbLine
 10
555.030783892172
 20
1046.578330447604
 30
0.0
 11
555.030783892172
 21
1042.578532022465
 31
0.0
  0
LINE
  5
8F
330
1F
100
AcDbEntity
  8
DXF_box-20180324_000352_959227_Model_0
 62
   178
420
        0
 48
25.39999961853027
370
   200
100
AcDbLine
 10
555.030783892172
 20
1046.578330447604
 30
0.0
 11
565.6148658791592
 21
1046.578330447604
 31
0.0
  0
LINE
  5
90
330
1F
100
AcDbEntity
  8
DXF_box-20180324_000352_959227_Model_0
 62
   178
420
        0
 48
25.39999961853027
370
   200
100
AcDbLine
 10
565.6148658791592
 20
1046.578330447604
 30
0.0
 11
565.6148658791592
 21
1042.578532022465
 31
0.0
  0
LINE
  5
91
330
1F
100
AcDbEntity
  8
DXF_box-20180324_000352_959227_Model_0
 62
   178
420
        0
 48
25.39999961853027
370
   200
100
AcDbLine
 10
565.6148658791592
 20
1042.578532022465
 30
0.0
 11
572.499134322267
 21
1042.578532022465
 31
0.0
  0
LINE
  5
92
330
1F
100
AcDbEntity
  8
DXF_box-20180324_000352_959227_Model_0
 62
   178
420
        0
 48
25.39999961853027
370
   200
100
AcDbLine
 10
436.3059979444132
 20
1042.578532022465
 30
0.0
 11
436.3059979444132
 21
1053.214838097671
 31
0.0
  0
LINE
  5
93
330
1F
100
AcDbEntity
  8
DXF_box-20180324_000352_959227_Model_0
 62
   178
420
        0
 48
25.39999961853027
370
   200
100
AcDbLine
 10
440.3057963695869
 20
1053.214838097671
 30
0.0
 11
436.3059979444132
 21
1053.214838097671
 31
0.0
  0
LINE
  5
94
330
1F
100
AcDbEntity
  8
DXF_box-20180324_000352_959227_Model_0
 62
   178
420
        0
 48
25.39999961853027
370
   200
100
AcDbLine
 10
440.3057963695869
 20
1053.214838097671
 30
0.0
 11
440.3057963695869
 21
1063.551159291265
 31
0.0
  0
LINE
  5
95
330
1F
100
AcDbEntity
  8
DXF_box-20180324_000352_959227_Model_0
 62
   178
420
        0
 48
25.39999961853027
370
   200
100
AcDbLine
 10
440.3057963695869
 20
1063.551159291265
 30
0.0
 11
436.3059979444132
 21
1063.551159291265
 31
0.0
  0
LINE
  5
96
330
1F
100
AcDbEntity
  8
DXF_box-20180324_000352_959227_Model_0
 62
   178
420
        0
 48
25.39999961853027
370
   200
100
AcDbLine
 10
436.3059979444132
 20
1063.551159291265
 30
0.0
 11
436.3059979444132
 21
1074.287460327479
 31
0.0
  0
LINE
  5
97
330
1F
100
AcDbEntity
  8
DXF_box-20180324_000352_959227_Model_0
 62
   178
420
        0
 48
25.39999961853027
370
   200
100
AcDbLine
 10
440.3057963695869
 20
1074.287460327479
 30
0.0
 11
436.3059979444132
 21
1074.287460327479
 31
0.0
  0
LINE
  5
98
330
1F
100
AcDbEntity
  8
DXF_box-20180324_000352_959227_Model_0
 62
   178
420
        0
 48
25.39999961853027
370
   200
100
AcDbLine
 10
440.3057963695869
 20
1074.287460327479
 30
0.0
 11
440.3057963695869
 21
1084.623781521073
 31
0.0
  0
LINE
  5
99
330
1F
100
AcDbEntity
  8
DXF_box-20180324_000352_959227_Model_0
 62
   178
420
        0
 48
25.39999961853027
370
   200
100
AcDbLine
 10
440.3057963695869
 20
1084.623781521073
 30
0.0
 11
436.3059979444132
 21
1084.623781521073
 31
0.0
  0
LINE
  5
9A
330
1F
100
AcDbEntity
  8
DXF_box-20180324_000352_959227_Model_0
 62
   178
420
        0
 48
25.39999961853027
370
   200
100
AcDbLine
 10
436.3059979444132
 20
1084.623781521073
 30
0.0
 11
436.3059979444132
 21
1095.360082556934
 31
0.0
  0
LINE
  5
9B
330
1F
100
AcDbEntity
  8
DXF_box-20180324_000352_959227_Model_0
 62
   178
420
        0
 48
25.39999961853027
370
   200
100
AcDbLine
 10
440.3057963695869
 20
1095.360082556934
 30
0.0
 11
436.3059979444132
 21
1095.360082556934
 31
0.0
  0
LINE
  5
9C
330
1F
100
AcDbEntity
  8
DXF_box-20180324_000352_959227_Model_0
 62
   178
420
        0
 48
25.39999961853027
370
   200
100
AcDbLine
 10
572.499134322267
 20
1042.578532022465
 30
0.0
 11
572.499134322267
 21
1053.014848176362
 31
0.0
  0
LINE
  5
9D
330
1F
100
AcDbEntity
  8
DXF_box-20180324_000352_959227_Model_0
 62
   178
420
        0
 48
25.39999961853027
370
   200
100
AcDbLine
 10
576.4989327474055
 20
1053.014848176362
 30
0.0
 11
572.499134322267
 21
1053.014848176362
 31
0.0
  0
LINE
  5
9E
330
1F
100
AcDbEntity
  8
DXF_box-20180324_000352_959227_Model_0
 62
   178
420
        0
 48
25.39999961853027
370
   200
100
AcDbLine
 10
576.4989327474055
 20
1053.014848176362
 30
0.0
 11
576.4989327474055
 21
1063.751149212575
 31
0.0
  0
LINE
  5
9F
330
1F
100
AcDbEntity
  8
DXF_box-20180324_000352_959227_Model_0
 62
   178
420
        0
 48
25.39999961853027
370
   200
100
AcDbLine
 10
576.4989327474055
 20
1063.751149212575
 30
0.0
 11
572.499134322267
 21
1063.751149212575
 31
0.0
  0
LINE
  5
A0
330
1F
100
AcDbEntity
  8
DXF_box-20180324_000352_959227_Model_0
 62
   178
420
        0
 48
25.39999961853027
370
   200
100
AcDbLine
 10
572.499134322267
 20
1063.751149212575
 30
0.0
 11
572.499134322267
 21
1074.087470406169
 31
0.0
  0
LINE
  5
A1
330
1F
100
AcDbEntity
  8
DXF_box-20180324_000352_959227_Model_0
 62
   178
420
        0
 48
25.39999961853027
370
   200
100
AcDbLine
 10
576.4989327474055
 20
1074.087470406169
 30
0.0
 11
572.499134322267
 21
1074.087470406169
 31
0.0
  0
LINE
  5
A2
330
1F
100
AcDbEntity
  8
DXF_box-20180324_000352_959227_Model_0
 62
   178
420
        0
 48
25.39999961853027
370
   200
100
AcDbLine
 10
576.4989327474055
 20
1074.087470406169
 30
0.0
 11
576.4989327474055
 21
1084.82377144203
 31
0.0
  0
LINE
  5
A3
330
1F
100
AcDbEntity
  8
DXF_box-20180324_000352_959227_Model_0
 62
   178
420
        0
 48
25.39999961853027
370
   200
100
AcDbLine
 10
576.4989327474055
 20
1084.82377144203
 30
0.0
 11
572.499134322267
 21
1084.82377144203
 31
0.0
  0
LINE
  5
A4
330
1F
100
AcDbEntity
  8
DXF_box-20180324_000352_959227_Model_0
 62
   178
420
        0
 48
25.39999961853027
370
   200
100
AcDbLine
 10
572.499134322267
 20
1084.82377144203
 30
0.0
 11
572.499134322267
 21
1095.160092635624
 31
0.0
  0
LINE
  5
A5
330
1F
100
AcDbEntity
  8
DXF_box-20180324_000352_959227_Model_0
 62
   178
420
        0
 48
25.39999961853027
370
   200
100
AcDbLine
 10
576.4989327474055
 20
1095.160092635624
 30
0.0
 11
572.499134322267
 21
1095.160092635624
 31
0.0
  0
LINE
  5
A6
330
1F
100
AcDbEntity
  8
DXF_box-20180324_000352_959227_Model_0
 62
   178
420
        0
 48
25.39999961853027
370
   200
100
AcDbLine
 10
576.4989327474055
 20
1095.160092635624
 30
0.0
 11
576.4989327474055
 21
1105.896393671838
 31
0.0
  0
LINE
  5
A7
330
1F
100
AcDbEntity
  8
DXF_box-20180324_000352_959227_Model_0
 62
   178
420
        0
 48
25.39999961853027
370
   200
100
AcDbLine
 10
576.4989327474055
 20
1105.896393671838
 30
0.0
 11
572.499134322267
 21
1105.896393671838
 31
0.0
  0
LINE
  5
A8
330
1F
100
AcDbEntity
  8
DXF_box-20180324_000352_959227_Model_0
 62
   178
420
        0
 48
25.39999961853027
370
   200
100
AcDbLine
 10
572.499134322267
 20
1105.896393671838
 30
0.0
 11
572.499134322267
 21
1116.232714865432
 31
0.0
  0
LINE
  5
A9
330
1F
100
AcDbEntity
  8
DXF_box-20180324_000352_959227_Model_0
 62
   178
420
        0
 48
25.39999961853027
370
   200
100
AcDbLine
 10
576.4989327474055
 20
1116.232714865432
 30
0.0
 11
572.499134322267
 21
1116.232714865432
 31
0.0
  0
LINE
  5
AA
330
1F
100
AcDbEntity
  8
DXF_box-20180324_000352_959227_Model_0
 62
   178
420
        0
 48
25.39999961853027
370
   200
100
AcDbLine
 10
576.4989327474055
 20
1116.232714865432
 30
0.0
 11
576.4989327474055
 21
1126.969015901293
 31
0.0
  0
LINE
  5
AB
330
1F
100
AcDbEntity
  8
DXF_box-20180324_000352_959227_Model_0
 62
   178
420
        0
 48
25.39999961853027
370
   200
100
AcDbLine
 10
576.4989327474055
 20
1126.969015901293
 30
0.0
 11
572.499134322267
 21
1126.969015901293
 31
0.0
  0
LINE
  5
AC
330
1F
100
AcDbEntity
  8
DXF_box-20180324_000352_959227_Model_0
 62
   178
420
        0
 48
25.39999961853027
370
   200
100
AcDbLine
 10
572.499134322267
 20
1126.969015901293
 30
0.0
 11
572.499134322267
 21
1137.305337094888
 31
0.0
  0
LINE
  5
AD
330
1F
100
AcDbEntity
  8
DXF_box-20180324_000352_959227_Model_0
 62
   178
420
        0
 48
25.39999961853027
370
   200
100
AcDbLine
 10
576.4989327474055
 20
1137.305337094888
 30
0.0
 11
572.499134322267
 21
1137.305337094888
 31
0.0
  0
LINE
  5
AE
330
1F
100
AcDbEntity
  8
DXF_box-20180324_000352_959227_Model_0
 62
   178
420
        0
 48
25.39999961853027
370
   200
100
AcDbLine
 10
576.4989327474055
 20
1137.305337094888
 30
0.0
 11
576.4989327474055
 21
1148.041638131101
 31
0.0
  0
LINE
  5
AF
330
1F
100
AcDbEntity
  8
DXF_box-20180324_000352_959227_Model_0
 62
   178
420
        0
 48
25.39999961853027
370
   200
100
AcDbLine
 10
732.8842624684916
 20
1048.321819444473
 30
0.0
 11
739.5685409906423
 21
1048.321819444473
 31
0.0
  0
LINE
  5
B0
330
1F
100
AcDbEntity
  8
DXF_box-20180324_000352_959227_Model_0
 62
   178
420
        0
 48
25.39999961853027
370
   200
100
AcDbLine
 10
739.5685409906423
 20
1048.321819444473
 30
0.0
 11
739.5685409906423
 21
1044.322021019334
 31
0.0
  0
LINE
  5
B1
330
1F
100
AcDbEntity
  8
DXF_box-20180324_000352_959227_Model_0
 62
   178
420
        0
 48
25.39999961853027
370
   200
100
AcDbLine
 10
739.5685409906423
 20
1044.322021019334
 30
0.0
 11
750.5526028198964
 21
1044.322021019334
 31
0.0
  0
LINE
  5
B2
330
1F
100
AcDbEntity
  8
DXF_box-20180324_000352_959227_Model_0
 62
   178
420
        0
 48
25.39999961853027
370
   200
100
AcDbLine
 10
750.5526028198964
 20
1048.321819444473
 30
0.0
 11
750.5526028198964
 21
1044.322021019334
 31
0.0
  0
LINE
  5
B3
330
1F
100
AcDbEntity
  8
DXF_box-20180324_000352_959227_Model_0
 62
   178
420
        0
 48
25.39999961853027
370
   200
100
AcDbLine
 10
750.5526028198964
 20
1048.321819444473
 30
0.0
 11
761.1366848065308
 21
1048.321819444473
 31
0.0
  0
LINE
  5
B4
330
1F
100
AcDbEntity
  8
DXF_box-20180324_000352_959227_Model_0
 62
   178
420
        0
 48
25.39999961853027
370
   200
100
AcDbLine
 10
761.1366848065308
 20
1048.321819444473
 30
0.0
 11
761.1366848065308
 21
1044.322021019334
 31
0.0
  0
LINE
  5
B5
330
1F
100
AcDbEntity
  8
DXF_box-20180324_000352_959227_Model_0
 62
   178
420
        0
 48
25.39999961853027
370
   200
100
AcDbLine
 10
761.1366848065308
 20
1044.322021019334
 30
0.0
 11
772.1207466357847
 21
1044.322021019334
 31
0.0
  0
LINE
  5
B6
330
1F
100
AcDbEntity
  8
DXF_box-20180324_000352_959227_Model_0
 62
   178
420
        0
 48
25.39999961853027
370
   200
100
AcDbLine
 10
772.1207466357847
 20
1048.321819444473
 30
0.0
 11
772.1207466357847
 21
1044.322021019334
 31
0.0
  0
LINE
  5
B7
330
1F
100
AcDbEntity
  8
DXF_box-20180324_000352_959227_Model_0
 62
   178
420
        0
 48
25.39999961853027
370
   200
100
AcDbLine
 10
772.1207466357847
 20
1048.321819444473
 30
0.0
 11
782.7048286224191
 21
1048.321819444473
 31
0.0
  0
LINE
  5
B8
330
1F
100
AcDbEntity
  8
DXF_box-20180324_000352_959227_Model_0
 62
   178
420
        0
 48
25.39999961853027
370
   200
100
AcDbLine
 10
782.7048286224191
 20
1048.321819444473
 30
0.0
 11
782.7048286224191
 21
1044.322021019334
 31
0.0
  0
LINE
  5
B9
330
1F
100
AcDbEntity
  8
DXF_box-20180324_000352_959227_Model_0
 62
   178
420
        0
 48
25.39999961853027
370
   200
100
AcDbLine
 10
782.7048286224191
 20
1044.322021019334
 30
0.0
 11
793.6888904516732
 21
1044.322021019334
 31
0.0
  0
LINE
  5
BA
330
1F
100
AcDbEntity
  8
DXF_box-20180324_000352_959227_Model_0
 62
   178
420
        0
 48
25.39999961853027
370
   200
100
AcDbLine
 10
793.6888904516732
 20
1048.321819444473
 30
0.0
 11
793.6888904516732
 21
1044.322021019334
 31
0.0
  0
LINE
  5
BB
330
1F
100
AcDbEntity
  8
DXF_box-20180324_000352_959227_Model_0
 62
   178
420
        0
 48
25.39999961853027
370
   200
100
AcDbLine
 10
793.6888904516732
 20
1048.321819444473
 30
0.0
 11
804.2729724383074
 21
1048.321819444473
 31
0.0
  0
LINE
  5
BC
330
1F
100
AcDbEntity
  8
DXF_box-20180324_000352_959227_Model_0
 62
   178
420
        0
 48
25.39999961853027
370
   200
100
AcDbLine
 10
804.2729724383074
 20
1048.321819444473
 30
0.0
 11
804.2729724383074
 21
1044.322021019334
 31
0.0
  0
LINE
  5
BD
330
1F
100
AcDbEntity
  8
DXF_box-20180324_000352_959227_Model_0
 62
   178
420
        0
 48
25.39999961853027
370
   200
100
AcDbLine
 10
804.2729724383074
 20
1044.322021019334
 30
0.0
 11
815.2570342675617
 21
1044.322021019334
 31
0.0
  0
LINE
  5
BE
330
1F
100
AcDbEntity
  8
DXF_box-20180324_000352_959227_Model_0
 62
   178
420
        0
 48
25.39999961853027
370
   200
100
AcDbLine
 10
815.2570342675617
 20
1048.321819444473
 30
0.0
 11
815.2570342675617
 21
1044.322021019334
 31
0.0
  0
LINE
  5
BF
330
1F
100
AcDbEntity
  8
DXF_box-20180324_000352_959227_Model_0
 62
   178
420
        0
 48
25.39999961853027
370
   200
100
AcDbLine
 10
815.2570342675617
 20
1048.321819444473
 30
0.0
 11
825.841116254196
 21
1048.321819444473
 31
0.0
  0
LINE
  5
C0
330
1F
100
AcDbEntity
  8
DXF_box-20180324_000352_959227_Model_0
 62
   178
420
        0
 48
25.39999961853027
370
   200
100
AcDbLine
 10
825.841116254196
 20
1048.321819444473
 30
0.0
 11
825.841116254196
 21
1044.322021019334
 31
0.0
  0
LINE
  5
C1
330
1F
100
AcDbEntity
  8
DXF_box-20180324_000352_959227_Model_0
 62
   178
420
        0
 48
25.39999961853027
370
   200
100
AcDbLine
 10
825.841116254196
 20
1044.322021019334
 30
0.0
 11
836.82517808345
 21
1044.322021019334
 31
0.0
  0
LINE
  5
C2
330
1F
100
AcDbEntity
  8
DXF_box-20180324_000352_959227_Model_0
 62
   178
420
        0
 48
25.39999961853027
370
   200
100
AcDbLine
 10
836.82517808345
 20
1048.321819444473
 30
0.0
 11
836.82517808345
 21
1044.322021019334
 31
0.0
  0
LINE
  5
C3
330
1F
100
AcDbEntity
  8
DXF_box-20180324_000352_959227_Model_0
 62
   178
420
        0
 48
25.39999961853027
370
   200
100
AcDbLine
 10
836.82517808345
 20
1048.321819444473
 30
0.0
 11
847.4092600700841
 21
1048.321819444473
 31
0.0
  0
LINE
  5
C4
330
1F
100
AcDbEntity
  8
DXF_box-20180324_000352_959227_Model_0
 62
   178
420
        0
 48
25.39999961853027
370
   200
100
AcDbLine
 10
847.4092600700841
 20
1048.321819444473
 30
0.0
 11
847.4092600700841
 21
1044.322021019334
 31
0.0
  0
LINE
  5
C5
330
1F
100
AcDbEntity
  8
DXF_box-20180324_000352_959227_Model_0
 62
   178
420
        0
 48
25.39999961853027
370
   200
100
AcDbLine
 10
847.4092600700841
 20
1044.322021019334
 30
0.0
 11
858.3933218993384
 21
1044.322021019334
 31
0.0
  0
LINE
  5
C6
330
1F
100
AcDbEntity
  8
DXF_box-20180324_000352_959227_Model_0
 62
   178
420
        0
 48
25.39999961853027
370
   200
100
AcDbLine
 10
858.3933218993384
 20
1048.321819444473
 30
0.0
 11
858.3933218993384
 21
1044.322021019334
 31
0.0
  0
LINE
  5
C7
330
1F
100
AcDbEntity
  8
DXF_box-20180324_000352_959227_Model_0
 62
   178
420
        0
 48
25.39999961853027
370
   200
100
AcDbLine
 10
858.3933218993384
 20
1048.321819444473
 30
0.0
 11
865.0776004214889
 21
1048.321819444473
 31
0.0
  0
LINE
  5
C8
330
1F
100
AcDbEntity
  8
DXF_box-20180324_000352_959227_Model_0
 62
   178
420
        0
 48
25.39999961853027
370
   200
100
AcDbLine
 10
732.8842624684916
 20
1180.515157396059
 30
0.0
 11
739.5685409906423
 21
1180.515157396059
 31
0.0
  0
LINE
  5
C9
330
1F
100
AcDbEntity
  8
DXF_box-20180324_000352_959227_Model_0
 62
   178
420
        0
 48
25.39999961853027
370
   200
100
AcDbLine
 10
739.5685409906423
 20
1184.514955822256
 30
0.0
 11
739.5685409906423
 21
1180.515157396059
 31
0.0
  0
LINE
  5
CA
330
1F
100
AcDbEntity
  8
DXF_box-20180324_000352_959227_Model_0
 62
   178
420
        0
 48
25.39999961853027
370
   200
100
AcDbLine
 10
739.5685409906423
 20
1184.514955822256
 30
0.0
 11
750.5526028198964
 21
1184.514955822256
 31
0.0
  0
LINE
  5
CB
330
1F
100
AcDbEntity
  8
DXF_box-20180324_000352_959227_Model_0
 62
   178
420
        0
 48
25.39999961853027
370
   200
100
AcDbLine
 10
750.5526028198964
 20
1184.514955822256
 30
0.0
 11
750.5526028198964
 21
1180.515157396059
 31
0.0
  0
LINE
  5
CC
330
1F
100
AcDbEntity
  8
DXF_box-20180324_000352_959227_Model_0
 62
   178
420
        0
 48
25.39999961853027
370
   200
100
AcDbLine
 10
750.5526028198964
 20
1180.515157396059
 30
0.0
 11
761.1366848065308
 21
1180.515157396059
 31
0.0
  0
LINE
  5
CD
330
1F
100
AcDbEntity
  8
DXF_box-20180324_000352_959227_Model_0
 62
   178
420
        0
 48
25.39999961853027
370
   200
100
AcDbLine
 10
761.1366848065308
 20
1184.514955822256
 30
0.0
 11
761.1366848065308
 21
1180.515157396059
 31
0.0
  0
LINE
  5
CE
330
1F
100
AcDbEntity
  8
DXF_box-20180324_000352_959227_Model_0
 62
   178
420
        0
 48
25.39999961853027
370
   200
100
AcDbLine
 10
761.1366848065308
 20
1184.514955822256
 30
0.0
 11
772.1207466357847
 21
1184.514955822256
 31
0.0
  0
LINE
  5
CF
330
1F
100
AcDbEntity
  8
DXF_box-20180324_000352_959227_Model_0
 62
   178
420
        0
 48
25.39999961853027
370
   200
100
AcDbLine
 10
772.1207466357847
 20
1184.514955822256
 30
0.0
 11
772.1207466357847
 21
1180.515157396059
 31
0.0
  0
LINE
  5
D0
330
1F
100
AcDbEntity
  8
DXF_box-20180324_000352_959227_Model_0
 62
   178
420
        0
 48
25.39999961853027
370
   200
100
AcDbLine
 10
772.1207466357847
 20
1180.515157396059
 30
0.0
 11
782.7048286224191
 21
1180.515157396059
 31
0.0
  0
LINE
  5
D1
330
1F
100
AcDbEntity
  8
DXF_box-20180324_000352_959227_Model_0
 62
   178
420
        0
 48
25.39999961853027
370
   200
100
AcDbLine
 10
782.7048286224191
 20
1184.514955822256
 30
0.0
 11
782.7048286224191
 21
1180.515157396059
 31
0.0
  0
LINE
  5
D2
330
1F
100
AcDbEntity
  8
DXF_box-20180324_000352_959227_Model_0
 62
   178
420
        0
 48
25.39999961853027
370
   200
100
AcDbLine
 10
782.7048286224191
 20
1184.514955822256
 30
0.0
 11
793.6888904516732
 21
1184.514955822256
 31
0.0
  0
LINE
  5
D3
330
1F
100
AcDbEntity
  8
DXF_box-20180324_000352_959227_Model_0
 62
   178
420
        0
 48
25.39999961853027
370
   200
100
AcDbLine
 10
793.6888904516732
 20
1184.514955822256
 30
0.0
 11
793.6888904516732
 21
1180.515157396059
 31
0.0
  0
LINE
  5
D4
330
1F
100
AcDbEntity
  8
DXF_box-20180324_000352_959227_Model_0
 62
   178
420
        0
 48
25.39999961853027
370
   200
100
AcDbLine
 10
793.6888904516732
 20
1180.515157396059
 30
0.0
 11
804.2729724383074
 21
1180.515157396059
 31
0.0
  0
LINE
  5
D5
330
1F
100
AcDbEntity
  8
DXF_box-20180324_000352_959227_Model_0
 62
   178
420
        0
 48
25.39999961853027
370
   200
100
AcDbLine
 10
804.2729724383074
 20
1184.514955822256
 30
0.0
 11
804.2729724383074
 21
1180.515157396059
 31
0.0
  0
LINE
  5
D6
330
1F
100
AcDbEntity
  8
DXF_box-20180324_000352_959227_Model_0
 62
   178
420
        0
 48
25.39999961853027
370
   200
100
AcDbLine
 10
804.2729724383074
 20
1184.514955822256
 30
0.0
 11
815.2570342675617
 21
1184.514955822256
 31
0.0
  0
LINE
  5
D7
330
1F
100
AcDbEntity
  8
DXF_box-20180324_000352_959227_Model_0
 62
   178
420
        0
 48
25.39999961853027
370
   200
100
AcDbLine
 10
815.2570342675617
 20
1184.514955822256
 30
0.0
 11
815.2570342675617
 21
1180.515157396059
 31
0.0
  0
LINE
  5
D8
330
1F
100
AcDbEntity
  8
DXF_box-20180324_000352_959227_Model_0
 62
   178
420
        0
 48
25.39999961853027
370
   200
100
AcDbLine
 10
815.2570342675617
 20
1180.515157396059
 30
0.0
 11
825.841116254196
 21
1180.515157396059
 31
0.0
  0
LINE
  5
D9
330
1F
100
AcDbEntity
  8
DXF_box-20180324_000352_959227_Model_0
 62
   178
420
        0
 48
25.39999961853027
370
   200
100
AcDbLine
 10
825.841116254196
 20
1184.514955822256
 30
0.0
 11
825.841116254196
 21
1180.515157396059
 31
0.0
  0
LINE
  5
DA
330
1F
100
AcDbEntity
  8
DXF_box-20180324_000352_959227_Model_0
 62
   178
420
        0
 48
25.39999961853027
370
   200
100
AcDbLine
 10
825.841116254196
 20
1184.514955822256
 30
0.0
 11
836.82517808345
 21
1184.514955822256
 31
0.0
  0
LINE
  5
DB
330
1F
100
AcDbEntity
  8
DXF_box-20180324_000352_959227_Model_0
 62
   178
420
        0
 48
25.39999961853027
370
   200
100
AcDbLine
 10
836.82517808345
 20
1184.514955822256
 30
0.0
 11
836.82517808345
 21
1180.515157396059
 31
0.0
  0
LINE
  5
DC
330
1F
100
AcDbEntity
  8
DXF_box-20180324_000352_959227_Model_0
 62
   178
420
        0
 48
25.39999961853027
370
   200
100
AcDbLine
 10
836.82517808345
 20
1180.515157396059
 30
0.0
 11
847.4092600700841
 21
1180.515157396059
 31
0.0
  0
LINE
  5
DD
330
1F
100
AcDbEntity
  8
DXF_box-20180324_000352_959227_Model_0
 62
   178
420
        0
 48
25.39999961853027
370
   200
100
AcDbLine
 10
847.4092600700841
 20
1184.514955822256
 30
0.0
 11
847.4092600700841
 21
1180.515157396059
 31
0.0
  0
LINE
  5
DE
330
1F
100
AcDbEntity
  8
DXF_box-20180324_000352_959227_Model_0
 62
   178
420
        0
 48
25.39999961853027
370
   200
100
AcDbLine
 10
847.4092600700841
 20
1184.514955822256
 30
0.0
 11
858.3933218993384
 21
1184.514955822256
 31
0.0
  0
LINE
  5
DF
330
1F
100
AcDbEntity
  8
DXF_box-20180324_000352_959227_Model_0
 62
   178
420
        0
 48
25.39999961853027
370
   200
100
AcDbLine
 10
858.3933218993384
 20
1184.514955822256
 30
0.0
 11
858.3933218993384
 21
1180.515157396059
 31
0.0
  0
LINE
  5
E0
330
1F
100
AcDbEntity
  8
DXF_box-20180324_000352_959227_Model_0
 62
   178
420
        0
 48
25.39999961853027
370
   200
100
AcDbLine
 10
858.3933218993384
 20
1180.515157396059
 30
0.0
 11
865.0776004214889
 21
1180.515157396059
 31
0.0
  0
LINE
  5
E1
330
1F
100
AcDbEntity
  8
DXF_box-20180324_000352_959227_Model_0
 62
   178
420
        0
 48
25.39999961853027
370
   200
100
AcDbLine
 10
732.8842624684916
 20
1048.321819444473
 30
0.0
 11
732.8842624684916
 21
1055.006097966624
 31
0.0
  0
LINE
  5
E2
330
1F
100
AcDbEntity
  8
DXF_box-20180324_000352_959227_Model_0
 62
   178
420
        0
 48
25.39999961853027
370
   200
100
AcDbLine
 10
732.8842624684916
 20
1055.006097966624
 30
0.0
 11
728.884464043353
 21
1055.006097966624
 31
0.0
  0
LINE
  5
E3
330
1F
100
AcDbEntity
  8
DXF_box-20180324_000352_959227_Model_0
 62
   178
420
        0
 48
25.39999961853027
370
   200
100
AcDbLine
 10
728.884464043353
 20
1055.006097966624
 30
0.0
 11
728.884464043353
 21
1065.990159795878
 31
0.0
  0
LINE
  5
E4
330
1F
100
AcDbEntity
  8
DXF_box-20180324_000352_959227_Model_0
 62
   178
420
        0
 48
25.39999961853027
370
   200
100
AcDbLine
 10
732.8842624684916
 20
1065.990159795878
 30
0.0
 11
728.884464043353
 21
1065.990159795878
 31
0.0
  0
LINE
  5
E5
330
1F
100
AcDbEntity
  8
DXF_box-20180324_000352_959227_Model_0
 62
   178
420
        0
 48
25.39999961853027
370
   200
100
AcDbLine
 10
732.8842624684916
 20
1065.990159795878
 30
0.0
 11
732.8842624684916
 21
1076.574241782512
 31
0.0
  0
LINE
  5
E6
330
1F
100
AcDbEntity
  8
DXF_box-20180324_000352_959227_Model_0
 62
   178
420
        0
 48
25.39999961853027
370
   200
100
AcDbLine
 10
732.8842624684916
 20
1076.574241782512
 30
0.0
 11
728.884464043353
 21
1076.574241782512
 31
0.0
  0
LINE
  5
E7
330
1F
100
AcDbEntity
  8
DXF_box-20180324_000352_959227_Model_0
 62
   178
420
        0
 48
25.39999961853027
370
   200
100
AcDbLine
 10
728.884464043353
 20
1076.574241782512
 30
0.0
 11
728.884464043353
 21
1087.558303611413
 31
0.0
  0
LINE
  5
E8
330
1F
100
AcDbEntity
  8
DXF_box-20180324_000352_959227_Model_0
 62
   178
420
        0
 48
25.39999961853027
370
   200
100
AcDbLine
 10
732.8842624684916
 20
1087.558303611413
 30
0.0
 11
728.884464043353
 21
1087.558303611413
 31
0.0
  0
LINE
  5
E9
330
1F
100
AcDbEntity
  8
DXF_box-20180324_000352_959227_Model_0
 62
   178
420
        0
 48
25.39999961853027
370
   200
100
AcDbLine
 10
732.8842624684916
 20
1087.558303611413
 30
0.0
 11
732.8842624684916
 21
1098.142385598401
 31
0.0
  0
LINE
  5
EA
330
1F
100
AcDbEntity
  8
DXF_box-20180324_000352_959227_Model_0
 62
   178
420
        0
 48
25.39999961853027
370
   200
100
AcDbLine
 10
732.8842624684916
 20
1098.142385598401
 30
0.0
 11
728.884464043353
 21
1098.142385598401
 31
0.0
  0
LINE
  5
EB
330
1F
100
AcDbEntity
  8
DXF_box-20180324_000352_959227_Model_0
 62
   178
420
        0
 48
25.39999961853027
370
   200
100
AcDbLine
 10
728.884464043353
 20
1098.142385598401
 30
0.0
 11
728.884464043353
 21
1109.126447427302
 31
0.0
  0
LINE
  5
EC
330
1F
100
AcDbEntity
  8
DXF_box-20180324_000352_959227_Model_0
 62
   178
420
        0
 48
25.39999961853027
370
   200
100
AcDbLine
 10
732.8842624684916
 20
1109.126447427302
 30
0.0
 11
728.884464043353
 21
1109.126447427302
 31
0.0
  0
LINE
  5
ED
330
1F
100
AcDbEntity
  8
DXF_box-20180324_000352_959227_Model_0
 62
   178
420
        0
 48
25.39999961853027
370
   200
100
AcDbLine
 10
732.8842624684916
 20
1109.126447427302
 30
0.0
 11
732.8842624684916
 21
1119.710529414289
 31
0.0
  0
LINE
  5
EE
330
1F
100
AcDbEntity
  8
DXF_box-20180324_000352_959227_Model_0
 62
   178
420
        0
 48
25.39999961853027
370
   200
100
AcDbLine
 10
732.8842624684916
 20
1119.710529414289
 30
0.0
 11
728.884464043353
 21
1119.710529414289
 31
0.0
  0
LINE
  5
EF
330
1F
100
AcDbEntity
  8
DXF_box-20180324_000352_959227_Model_0
 62
   178
420
        0
 48
25.39999961853027
370
   200
100
AcDbLine
 10
728.884464043353
 20
1119.710529414289
 30
0.0
 11
728.884464043353
 21
1130.69459124319
 31
0.0
  0
LINE
  5
F0
330
1F
100
AcDbEntity
  8
DXF_box-20180324_000352_959227_Model_0
 62
   178
420
        0
 48
25.39999961853027
370
   200
100
AcDbLine
 10
732.8842624684916
 20
1130.69459124319
 30
0.0
 11
728.884464043353
 21
1130.69459124319
 31
0.0
  0
LINE
  5
F1
330
1F
100
AcDbEntity
  8
DXF_box-20180324_000352_959227_Model_0
 62
   178
420
        0
 48
25.39999961853027
370
   200
100
AcDbLine
 10
732.8842624684916
 20
1130.69459124319
 30
0.0
 11
732.8842624684916
 21
1141.278673229825
 31
0.0
  0
LINE
  5
F2
330
1F
100
AcDbEntity
  8
DXF_box-20180324_000352_959227_Model_0
 62
   178
420
        0
 48
25.39999961853027
370
   200
100
AcDbLine
 10
732.8842624684916
 20
1141.278673229825
 30
0.0
 11
728.884464043353
 21
1141.278673229825
 31
0.0
  0
LINE
  5
F3
330
1F
100
AcDbEntity
  8
DXF_box-20180324_000352_959227_Model_0
 62
   178
420
        0
 48
25.39999961853027
370
   200
100
AcDbLine
 10
728.884464043353
 20
1141.278673229825
 30
0.0
 11
728.884464043353
 21
1152.262735059079
 31
0.0
  0
LINE
  5
F4
330
1F
100
AcDbEntity
  8
DXF_box-20180324_000352_959227_Model_0
 62
   178
420
        0
 48
25.39999961853027
370
   200
100
AcDbLine
 10
732.8842624684916
 20
1152.262735059079
 30
0.0
 11
728.884464043353
 21
1152.262735059079
 31
0.0
  0
LINE
  5
F5
330
1F
100
AcDbEntity
  8
DXF_box-20180324_000352_959227_Model_0
 62
   178
420
        0
 48
25.39999961853027
370
   200
100
AcDbLine
 10
732.8842624684916
 20
1152.262735059079
 30
0.0
 11
732.8842624684916
 21
1162.846817045713
 31
0.0
  0
LINE
  5
F6
330
1F
100
AcDbEntity
  8
DXF_box-20180324_000352_959227_Model_0
 62
   178
420
        0
 48
25.39999961853027
370
   200
100
AcDbLine
 10
732.8842624684916
 20
1162.846817045713
 30
0.0
 11
728.884464043353
 21
1162.846817045713
 31
0.0
  0
LINE
  5
F7
330
1F
100
AcDbEntity
  8
DXF_box-20180324_000352_959227_Model_0
 62
   178
420
        0
 48
25.39999961853027
370
   200
100
AcDbLine
 10
728.884464043353
 20
1162.846817045713
 30
0.0
 11
728.884464043353
 21
1173.830878874967
 31
0.0
  0
LINE
  5
F8
330
1F
100
AcDbEntity
  8
DXF_box-20180324_000352_959227_Model_0
 62
   178
420
        0
 48
25.39999961853027
370
   200
100
AcDbLine
 10
732.8842624684916
 20
1173.830878874967
 30
0.0
 11
728.884464043353
 21
1173.830878874967
 31
0.0
  0
LINE
  5
F9
330
1F
100
AcDbEntity
  8
DXF_box-20180324_000352_959227_Model_0
 62
   178
420
        0
 48
25.39999961853027
370
   200
100
AcDbLine
 10
732.8842624684916
 20
1173.830878874967
 30
0.0
 11
732.8842624684916
 21
1180.515157396059
 31
0.0
  0
LINE
  5
FA
330
1F
100
AcDbEntity
  8
DXF_box-20180324_000352_959227_Model_0
 62
   178
420
        0
 48
25.39999961853027
370
   200
100
AcDbLine
 10
865.0776004214889
 20
1048.321819444473
 30
0.0
 11
865.0776004214889
 21
1055.006097966624
 31
0.0
  0
LINE
  5
FB
330
1F
100
AcDbEntity
  8
DXF_box-20180324_000352_959227_Model_0
 62
   178
420
        0
 48
25.39999961853027
370
   200
100
AcDbLine
 10
869.0773988466276
 20
1055.006097966624
 30
0.0
 11
865.0776004214889
 21
1055.006097966624
 31
0.0
  0
LINE
  5
FC
330
1F
100
AcDbEntity
  8
DXF_box-20180324_000352_959227_Model_0
 62
   178
420
        0
 48
25.39999961853027
370
   200
100
AcDbLine
 10
869.0773988466276
 20
1055.006097966624
 30
0.0
 11
869.0773988466276
 21
1065.990159795878
 31
0.0
  0
LINE
  5
FD
330
1F
100
AcDbEntity
  8
DXF_box-20180324_000352_959227_Model_0
 62
   178
420
        0
 48
25.39999961853027
370
   200
100
AcDbLine
 10
869.0773988466276
 20
1065.990159795878
 30
0.0
 11
865.0776004214889
 21
1065.990159795878
 31
0.0
  0
LINE
  5
FE
330
1F
100
AcDbEntity
  8
DXF_box-20180324_000352_959227_Model_0
 62
   178
420
        0
 48
25.39999961853027
370
   200
100
AcDbLine
 10
865.0776004214889
 20
1065.990159795878
 30
0.0
 11
865.0776004214889
 21
1076.574241782512
 31
0.0
  0
LINE
  5
FF
330
1F
100
AcDbEntity
  8
DXF_box-20180324_000352_959227_Model_0
 62
   178
420
        0
 48
25.39999961853027
370
   200
100
AcDbLine
 10
869.0773988466276
 20
1076.574241782512
 30
0.0
 11
865.0776004214889
 21
1076.574241782512
 31
0.0
  0
LINE
  5
100
330
1F
100
AcDbEntity
  8
DXF_box-20180324_000352_959227_Model_0
 62
   178
420
        0
 48
25.39999961853027
370
   200
100
AcDbLine
 10
869.0773988466276
 20
1076.574241782512
 30
0.0
 11
869.0773988466276
 21
1087.558303611413
 31
0.0
  0
LINE
  5
101
330
1F
100
AcDbEntity
  8
DXF_box-20180324_000352_959227_Model_0
 62
   178
420
        0
 48
25.39999961853027
370
   200
100
AcDbLine
 10
869.0773988466276
 20
1087.558303611413
 30
0.0
 11
865.0776004214889
 21
1087.558303611413
 31
0.0
  0
LINE
  5
102
330
1F
100
AcDbEntity
  8
DXF_box-20180324_000352_959227_Model_0
 62
   178
420
        0
 48
25.39999961853027
370
   200
100
AcDbLine
 10
865.0776004214889
 20
1087.558303611413
 30
0.0
 11
865.0776004214889
 21
1098.142385598401
 31
0.0
  0
LINE
  5
103
330
1F
100
AcDbEntity
  8
DXF_box-20180324_000352_959227_Model_0
 62
   178
420
        0
 48
25.39999961853027
370
   200
100
AcDbLine
 10
869.0773988466276
 20
1098.142385598401
 30
0.0
 11
865.0776004214889
 21
1098.142385598401
 31
0.0
  0
LINE
  5
104
330
1F
100
AcDbEntity
  8
DXF_box-20180324_000352_959227_Model_0
 62
   178
420
        0
 48
25.39999961853027
370
   200
100
AcDbLine
 10
869.0773988466276
 20
1098.142385598401
 30
0.0
 11
869.0773988466276
 21
1109.126447427302
 31
0.0
  0
LINE
  5
105
330
1F
100
AcDbEntity
  8
DXF_box-20180324_000352_959227_Model_0
 62
   178
420
        0
 48
25.39999961853027
370
   200
100
AcDbLine
 10
869.0773988466276
 20
1109.126447427302
 30
0.0
 11
865.0776004214889
 21
1109.126447427302
 31
0.0
  0
LINE
  5
106
330
1F
100
AcDbEntity
  8
DXF_box-20180324_000352_959227_Model_0
 62
   178
420
        0
 48
25.39999961853027
370
   200
100
AcDbLine
 10
865.0776004214889
 20
1109.126447427302
 30
0.0
 11
865.0776004214889
 21
1119.710529414289
 31
0.0
  0
LINE
  5
107
330
1F
100
AcDbEntity
  8
DXF_box-20180324_000352_959227_Model_0
 62
   178
420
        0
 48
25.39999961853027
370
   200
100
AcDbLine
 10
869.0773988466276
 20
1119.710529414289
 30
0.0
 11
865.0776004214889
 21
1119.710529414289
 31
0.0
  0
LINE
  5
108
330
1F
100
AcDbEntity
  8
DXF_box-20180324_000352_959227_Model_0
 62
   178
420
        0
 48
25.39999961853027
370
   200
100
AcDbLine
 10
869.0773988466276
 20
1119.710529414289
 30
0.0
 11
869.0773988466276
 21
1130.69459124319
 31
0.0
  0
LINE
  5
109
330
1F
100
AcDbEntity
  8
DXF_box-20180324_000352_959227_Model_0
 62
   178
420
        0
 48
25.39999961853027
370
   200
100
AcDbLine
 10
869.0773988466276
 20
1130.69459124319
 30
0.0
 11
865.0776004214889
 21
1130.69459124319
 31
0.0
  0
LINE
  5
10A
330
1F
100
AcDbEntity
  8
DXF_box-20180324_000352_959227_Model_0
 62
   178
420
        0
 48
25.39999961853027
370
   200
100
AcDbLine
 10
865.0776004214889
 20
1130.69459124319
 30
0.0
 11
865.0776004214889
 21
1141.278673229825
 31
0.0
  0
LINE
  5
10B
330
1F
100
AcDbEntity
  8
DXF_box-20180324_000352_959227_Model_0
 62
   178
420
        0
 48
25.39999961853027
370
   200
100
AcDbLine
 10
869.0773988466276
 20
1141.278673229825
 30
0.0
 11
865.0776004214889
 21
1141.278673229825
 31
0.0
  0
LINE
  5
10C
330
1F
100
AcDbEntity
  8
DXF_box-20180324_000352_959227_Model_0
 62
   178
420
        0
 48
25.39999961853027
370
   200
100
AcDbLine
 10
869.0773988466276
 20
1141.278673229825
 30
0.0
 11
869.0773988466276
 21
1152.262735059079
 31
0.0
  0
LINE
  5
10D
330
1F
100
AcDbEntity
  8
DXF_box-20180324_000352_959227_Model_0
 62
   178
420
        0
 48
25.39999961853027
370
   200
100
AcDbLine
 10
869.0773988466276
 20
1152.262735059079
 30
0.0
 11
865.0776004214889
 21
1152.262735059079
 31
0.0
  0
LINE
  5
10E
330
1F
100
AcDbEntity
  8
DXF_box-20180324_000352_959227_Model_0
 62
   178
420
        0
 48
25.39999961853027
370
   200
100
AcDbLine
 10
865.0776004214889
 20
1152.262735059079
 30
0.0
 11
865.0776004214889
 21
1162.846817045713
 31
0.0
  0
LINE
  5
10F
330
1F
100
AcDbEntity
  8
DXF_box-20180324_000352_959227_Model_0
 62
   178
420
        0
 48
25.39999961853027
370
   200
100
AcDbLine
 10
869.0773988466276
 20
1162.846817045713
 30
0.0
 11
865.0776004214889
 21
1162.846817045713
 31
0.0
  0
LINE
  5
110
330
1F
100
AcDbEntity
  8
DXF_box-20180324_000352_959227_Model_0
 62
   178
420
        0
 48
25.39999961853027
370
   200
100
AcDbLine
 10
869.0773988466276
 20
1162.846817045713
 30
0.0
 11
869.0773988466276
 21
1173.830878874967
 31
0.0
  0
LINE
  5
111
330
1F
100
AcDbEntity
  8
DXF_box-20180324_000352_959227_Model_0
 62
   178
420
        0
 48
25.39999961853027
370
   200
100
AcDbLine
 10
869.0773988466276
 20
1173.830878874967
 30
0.0
 11
865.0776004214889
 21
1173.830878874967
 31
0.0
  0
LINE
  5
112
330
1F
100
AcDbEntity
  8
DXF_box-20180324_000352_959227_Model_0
 62
   178
420
        0
 48
25.39999961853027
370
   200
100
AcDbLine
 10
865.0776004214889
 20
1173.830878874967
 30
0.0
 11
865.0776004214889
 21
1180.515157396059
 31
0.0
  0
LINE
  5
113
330
1F
100
AcDbEntity
  8
DXF_box-20180324_000352_959227_Model_0
 62
   178
420
        0
 48
25.39999961853027
370
   200
100
AcDbLine
 10
439.4714231246244
 20
1153.172309725682
 30
0.0
 11
450.3554899932236
 21
1153.172309725682
 31
0.0
  0
LINE
  5
114
330
1F
100
AcDbEntity
  8
DXF_box-20180324_000352_959227_Model_0
 62
   178
420
        0
 48
25.39999961853027
370
   200
100
AcDbLine
 10
450.3554899932236
 20
1157.172108150821
 30
0.0
 11
450.3554899932236
 21
1153.172309725682
 31
0.0
  0
LINE
  5
115
330
1F
100
AcDbEntity
  8
DXF_box-20180324_000352_959227_Model_0
 62
   178
420
        0
 48
25.39999961853027
370
   200
100
AcDbLine
 10
450.3554899932236
 20
1157.172108150821
 30
0.0
 11
460.9395719798579
 21
1157.172108150821
 31
0.0
  0
LINE
  5
116
330
1F
100
AcDbEntity
  8
DXF_box-20180324_000352_959227_Model_0
 62
   178
420
        0
 48
25.39999961853027
370
   200
100
AcDbLine
 10
460.9395719798579
 20
1157.172108150821
 30
0.0
 11
460.9395719798579
 21
1153.172309725682
 31
0.0
  0
LINE
  5
117
330
1F
100
AcDbEntity
  8
DXF_box-20180324_000352_959227_Model_0
 62
   178
420
        0
 48
25.39999961853027
370
   200
100
AcDbLine
 10
460.9395719798579
 20
1153.172309725682
 30
0.0
 11
471.9236338087592
 21
1153.172309725682
 31
0.0
  0
LINE
  5
118
330
1F
100
AcDbEntity
  8
DXF_box-20180324_000352_959227_Model_0
 62
   178
420
        0
 48
25.39999961853027
370
   200
100
AcDbLine
 10
471.9236338087592
 20
1157.172108150821
 30
0.0
 11
471.9236338087592
 21
1153.172309725682
 31
0.0
  0
LINE
  5
119
330
1F
100
AcDbEntity
  8
DXF_box-20180324_000352_959227_Model_0
 62
   178
420
        0
 48
25.39999961853027
370
   200
100
AcDbLine
 10
471.9236338087592
 20
1157.172108150821
 30
0.0
 11
482.5077157946881
 21
1157.172108150821
 31
0.0
  0
LINE
  5
11A
330
1F
100
AcDbEntity
  8
DXF_box-20180324_000352_959227_Model_0
 62
   178
420
        0
 48
25.39999961853027
370
   200
100
AcDbLine
 10
482.5077157946881
 20
1157.172108150821
 30
0.0
 11
482.5077157946881
 21
1153.172309725682
 31
0.0
  0
LINE
  5
11B
330
1F
100
AcDbEntity
  8
DXF_box-20180324_000352_959227_Model_0
 62
   178
420
        0
 48
25.39999961853027
370
   200
100
AcDbLine
 10
482.5077157946881
 20
1153.172309725682
 30
0.0
 11
493.491777624295
 21
1153.172309725682
 31
0.0
  0
LINE
  5
11C
330
1F
100
AcDbEntity
  8
DXF_box-20180324_000352_959227_Model_0
 62
   178
420
        0
 48
25.39999961853027
370
   200
100
AcDbLine
 10
493.491777624295
 20
1157.172108150821
 30
0.0
 11
493.491777624295
 21
1153.172309725682
 31
0.0
  0
LINE
  5
11D
330
1F
100
AcDbEntity
  8
DXF_box-20180324_000352_959227_Model_0
 62
   178
420
        0
 48
25.39999961853027
370
   200
100
AcDbLine
 10
493.491777624295
 20
1157.172108150821
 30
0.0
 11
504.0758596105767
 21
1157.172108150821
 31
0.0
  0
LINE
  5
11E
330
1F
100
AcDbEntity
  8
DXF_box-20180324_000352_959227_Model_0
 62
   178
420
        0
 48
25.39999961853027
370
   200
100
AcDbLine
 10
504.0758596105767
 20
1157.172108150821
 30
0.0
 11
504.0758596105767
 21
1153.172309725682
 31
0.0
  0
LINE
  5
11F
330
1F
100
AcDbEntity
  8
DXF_box-20180324_000352_959227_Model_0
 62
   178
420
        0
 48
25.39999961853027
370
   200
100
AcDbLine
 10
504.0758596105767
 20
1153.172309725682
 30
0.0
 11
515.0599214401834
 21
1153.172309725682
 31
0.0
  0
LINE
  5
120
330
1F
100
AcDbEntity
  8
DXF_box-20180324_000352_959227_Model_0
 62
   178
420
        0
 48
25.39999961853027
370
   200
100
AcDbLine
 10
515.0599214401834
 20
1157.172108150821
 30
0.0
 11
515.0599214401834
 21
1153.172309725682
 31
0.0
  0
LINE
  5
121
330
1F
100
AcDbEntity
  8
DXF_box-20180324_000352_959227_Model_0
 62
   178
420
        0
 48
25.39999961853027
370
   200
100
AcDbLine
 10
515.0599214401834
 20
1157.172108150821
 30
0.0
 11
525.6440034264649
 21
1157.172108150821
 31
0.0
  0
LINE
  5
122
330
1F
100
AcDbEntity
  8
DXF_box-20180324_000352_959227_Model_0
 62
   178
420
        0
 48
25.39999961853027
370
   200
100
AcDbLine
 10
525.6440034264649
 20
1157.172108150821
 30
0.0
 11
525.6440034264649
 21
1153.172309725682
 31
0.0
  0
LINE
  5
123
330
1F
100
AcDbEntity
  8
DXF_box-20180324_000352_959227_Model_0
 62
   178
420
        0
 48
25.39999961853027
370
   200
100
AcDbLine
 10
525.6440034264649
 20
1153.172309725682
 30
0.0
 11
536.6280652560717
 21
1153.172309725682
 31
0.0
  0
LINE
  5
124
330
1F
100
AcDbEntity
  8
DXF_box-20180324_000352_959227_Model_0
 62
   178
420
        0
 48
25.39999961853027
370
   200
100
AcDbLine
 10
536.6280652560717
 20
1157.172108150821
 30
0.0
 11
536.6280652560717
 21
1153.172309725682
 31
0.0
  0
LINE
  5
125
330
1F
100
AcDbEntity
  8
DXF_box-20180324_000352_959227_Model_0
 62
   178
420
        0
 48
25.39999961853027
370
   200
100
AcDbLine
 10
536.6280652560717
 20
1157.172108150821
 30
0.0
 11
547.2121472423534
 21
1157.172108150821
 31
0.0
  0
LINE
  5
126
330
1F
100
AcDbEntity
  8
DXF_box-20180324_000352_959227_Model_0
 62
   178
420
        0
 48
25.39999961853027
370
   200
100
AcDbLine
 10
547.2121472423534
 20
1157.172108150821
 30
0.0
 11
547.2121472423534
 21
1153.172309725682
 31
0.0
  0
LINE
  5
127
330
1F
100
AcDbEntity
  8
DXF_box-20180324_000352_959227_Model_0
 62
   178
420
        0
 48
25.39999961853027
370
   200
100
AcDbLine
 10
547.2121472423534
 20
1153.172309725682
 30
0.0
 11
558.1962090719603
 21
1153.172309725682
 31
0.0
  0
LINE
  5
128
330
1F
100
AcDbEntity
  8
DXF_box-20180324_000352_959227_Model_0
 62
   178
420
        0
 48
25.39999961853027
370
   200
100
AcDbLine
 10
558.1962090719603
 20
1157.172108150821
 30
0.0
 11
558.1962090719603
 21
1153.172309725682
 31
0.0
  0
LINE
  5
129
330
1F
100
AcDbEntity
  8
DXF_box-20180324_000352_959227_Model_0
 62
   178
420
        0
 48
25.39999961853027
370
   200
100
AcDbLine
 10
558.1962090719603
 20
1157.172108150821
 30
0.0
 11
568.7802910582419
 21
1157.172108150821
 31
0.0
  0
LINE
  5
12A
330
1F
100
AcDbEntity
  8
DXF_box-20180324_000352_959227_Model_0
 62
   178
420
        0
 48
25.39999961853027
370
   200
100
AcDbLine
 10
568.7802910582419
 20
1157.172108150821
 30
0.0
 11
568.7802910582419
 21
1153.172309725682
 31
0.0
  0
LINE
  5
12B
330
1F
100
AcDbEntity
  8
DXF_box-20180324_000352_959227_Model_0
 62
   178
420
        0
 48
25.39999961853027
370
   200
100
AcDbLine
 10
568.7802910582419
 20
1153.172309725682
 30
0.0
 11
575.6645595034663
 21
1153.172309725682
 31
0.0
  0
LINE
  5
12C
330
1F
100
AcDbEntity
  8
DXF_box-20180324_000352_959227_Model_0
 62
   178
420
        0
 48
25.39999961853027
370
   200
100
AcDbLine
 10
439.4714231246244
 20
1153.172309725682
 30
0.0
 11
439.4714231246244
 21
1163.808615800888
 31
0.0
  0
LINE
  5
12D
330
1F
100
AcDbEntity
  8
DXF_box-20180324_000352_959227_Model_0
 62
   178
420
        0
 48
25.39999961853027
370
   200
100
AcDbLine
 10
443.4712215497629
 20
1163.808615800888
 30
0.0
 11
439.4714231246244
 21
1163.808615800888
 31
0.0
  0
LINE
  5
12E
330
1F
100
AcDbEntity
  8
DXF_box-20180324_000352_959227_Model_0
 62
   178
420
        0
 48
25.39999961853027
370
   200
100
AcDbLine
 10
443.4712215497629
 20
1163.808615800888
 30
0.0
 11
443.4712215497629
 21
1174.144936994482
 31
0.0
  0
LINE
  5
12F
330
1F
100
AcDbEntity
  8
DXF_box-20180324_000352_959227_Model_0
 62
   178
420
        0
 48
25.39999961853027
370
   200
100
AcDbLine
 10
443.4712215497629
 20
1174.144936994482
 30
0.0
 11
439.4714231246244
 21
1174.144936994482
 31
0.0
  0
LINE
  5
130
330
1F
100
AcDbEntity
  8
DXF_box-20180324_000352_959227_Model_0
 62
   178
420
        0
 48
25.39999961853027
370
   200
100
AcDbLine
 10
439.4714231246244
 20
1174.144936994482
 30
0.0
 11
439.4714231246244
 21
1184.881238030696
 31
0.0
  0
LINE
  5
131
330
1F
100
AcDbEntity
  8
DXF_box-20180324_000352_959227_Model_0
 62
   178
420
        0
 48
25.39999961853027
370
   200
100
AcDbLine
 10
443.4712215497629
 20
1184.881238030696
 30
0.0
 11
439.4714231246244
 21
1184.881238030696
 31
0.0
  0
LINE
  5
132
330
1F
100
AcDbEntity
  8
DXF_box-20180324_000352_959227_Model_0
 62
   178
420
        0
 48
25.39999961853027
370
   200
100
AcDbLine
 10
443.4712215497629
 20
1184.881238030696
 30
0.0
 11
443.4712215497629
 21
1195.21755922429
 31
0.0
  0
LINE
  5
133
330
1F
100
AcDbEntity
  8
DXF_box-20180324_000352_959227_Model_0
 62
   178
420
        0
 48
25.39999961853027
370
   200
100
AcDbLine
 10
443.4712215497629
 20
1195.21755922429
 30
0.0
 11
439.4714231246244
 21
1195.21755922429
 31
0.0
  0
LINE
  5
134
330
1F
100
AcDbEntity
  8
DXF_box-20180324_000352_959227_Model_0
 62
   178
420
        0
 48
25.39999961853027
370
   200
100
AcDbLine
 10
439.4714231246244
 20
1195.21755922429
 30
0.0
 11
439.4714231246244
 21
1205.953860260151
 31
0.0
  0
LINE
  5
135
330
1F
100
AcDbEntity
  8
DXF_box-20180324_000352_959227_Model_0
 62
   178
420
        0
 48
25.39999961853027
370
   200
100
AcDbLine
 10
443.4712215497629
 20
1205.953860260151
 30
0.0
 11
439.4714231246244
 21
1205.953860260151
 31
0.0
  0
LINE
  5
136
330
1F
100
AcDbEntity
  8
DXF_box-20180324_000352_959227_Model_0
 62
   178
420
        0
 48
25.39999961853027
370
   200
100
AcDbLine
 10
443.4712215497629
 20
1205.953860260151
 30
0.0
 11
443.4712215497629
 21
1216.290181453745
 31
0.0
  0
LINE
  5
137
330
1F
100
AcDbEntity
  8
DXF_box-20180324_000352_959227_Model_0
 62
   178
420
        0
 48
25.39999961853027
370
   200
100
AcDbLine
 10
443.4712215497629
 20
1216.290181453745
 30
0.0
 11
439.4714231246244
 21
1216.290181453745
 31
0.0
  0
LINE
  5
138
330
1F
100
AcDbEntity
  8
DXF_box-20180324_000352_959227_Model_0
 62
   178
420
        0
 48
25.39999961853027
370
   200
100
AcDbLine
 10
439.4714231246244
 20
1216.290181453745
 30
0.0
 11
439.4714231246244
 21
1227.026482489606
 31
0.0
  0
LINE
  5
139
330
1F
100
AcDbEntity
  8
DXF_box-20180324_000352_959227_Model_0
 62
   178
420
        0
 48
25.39999961853027
370
   200
100
AcDbLine
 10
443.4712215497629
 20
1227.026482489606
 30
0.0
 11
439.4714231246244
 21
1227.026482489606
 31
0.0
  0
LINE
  5
13A
330
1F
100
AcDbEntity
  8
DXF_box-20180324_000352_959227_Model_0
 62
   178
420
        0
 48
25.39999961853027
370
   200
100
AcDbLine
 10
443.4712215497629
 20
1227.026482489606
 30
0.0
 11
443.4712215497629
 21
1237.362803683201
 31
0.0
  0
LINE
  5
13B
330
1F
100
AcDbEntity
  8
DXF_box-20180324_000352_959227_Model_0
 62
   178
420
        0
 48
25.39999961853027
370
   200
100
AcDbLine
 10
443.4712215497629
 20
1237.362803683201
 30
0.0
 11
439.4714231246244
 21
1237.362803683201
 31
0.0
  0
LINE
  5
13C
330
1F
100
AcDbEntity
  8
DXF_box-20180324_000352_959227_Model_0
 62
   178
420
        0
 48
25.39999961853027
370
   200
100
AcDbLine
 10
439.4714231246244
 20
1237.362803683201
 30
0.0
 11
439.4714231246244
 21
1248.099104719414
 31
0.0
  0
LINE
  5
13D
330
1F
100
AcDbEntity
  8
DXF_box-20180324_000352_959227_Model_0
 62
   178
420
        0
 48
25.39999961853027
370
   200
100
AcDbLine
 10
443.4712215497629
 20
1248.099104719414
 30
0.0
 11
439.4714231246244
 21
1248.099104719414
 31
0.0
  0
LINE
  5
13E
330
1F
100
AcDbEntity
  8
DXF_box-20180324_000352_959227_Model_0
 62
   178
420
        0
 48
25.39999961853027
370
   200
100
AcDbLine
 10
443.4712215497629
 20
1248.099104719414
 30
0.0
 11
443.4712215497629
 21
1258.435425913008
 31
0.0
  0
LINE
  5
13F
330
1F
100
AcDbEntity
  8
DXF_box-20180324_000352_959227_Model_0
 62
   178
420
        0
 48
25.39999961853027
370
   200
100
AcDbLine
 10
575.6645595034663
 20
1153.172309725682
 30
0.0
 11
575.6645595034663
 21
1163.608625879578
 31
0.0
  0
LINE
  5
140
330
1F
100
AcDbEntity
  8
DXF_box-20180324_000352_959227_Model_0
 62
   178
420
        0
 48
25.39999961853027
370
   200
100
AcDbLine
 10
579.6643579261354
 20
1163.608625879578
 30
0.0
 11
575.6645595034663
 21
1163.608625879578
 31
0.0
  0
LINE
  5
141
330
1F
100
AcDbEntity
  8
DXF_box-20180324_000352_959227_Model_0
 62
   178
420
        0
 48
25.39999961853027
370
   200
100
AcDbLine
 10
579.6643579261354
 20
1163.608625879578
 30
0.0
 11
579.6643579261354
 21
1174.344926915792
 31
0.0
  0
LINE
  5
142
330
1F
100
AcDbEntity
  8
DXF_box-20180324_000352_959227_Model_0
 62
   178
420
        0
 48
25.39999961853027
370
   200
100
AcDbLine
 10
579.6643579261354
 20
1174.344926915792
 30
0.0
 11
575.6645595034663
 21
1174.344926915792
 31
0.0
  0
LINE
  5
143
330
1F
100
AcDbEntity
  8
DXF_box-20180324_000352_959227_Model_0
 62
   178
420
        0
 48
25.39999961853027
370
   200
100
AcDbLine
 10
575.6645595034663
 20
1174.344926915792
 30
0.0
 11
575.6645595034663
 21
1184.681248109386
 31
0.0
  0
LINE
  5
144
330
1F
100
AcDbEntity
  8
DXF_box-20180324_000352_959227_Model_0
 62
   178
420
        0
 48
25.39999961853027
370
   200
100
AcDbLine
 10
579.6643579261354
 20
1184.681248109386
 30
0.0
 11
575.6645595034663
 21
1184.681248109386
 31
0.0
  0
LINE
  5
145
330
1F
100
AcDbEntity
  8
DXF_box-20180324_000352_959227_Model_0
 62
   178
420
        0
 48
25.39999961853027
370
   200
100
AcDbLine
 10
579.6643579261354
 20
1184.681248109386
 30
0.0
 11
579.6643579261354
 21
1195.417549145247
 31
0.0
  0
LINE
  5
146
330
1F
100
AcDbEntity
  8
DXF_box-20180324_000352_959227_Model_0
 62
   178
420
        0
 48
25.39999961853027
370
   200
100
AcDbLine
 10
579.6643579261354
 20
1195.417549145247
 30
0.0
 11
575.6645595034663
 21
1195.417549145247
 31
0.0
  0
LINE
  5
147
330
1F
100
AcDbEntity
  8
DXF_box-20180324_000352_959227_Model_0
 62
   178
420
        0
 48
25.39999961853027
370
   200
100
AcDbLine
 10
575.6645595034663
 20
1195.417549145247
 30
0.0
 11
575.6645595034663
 21
1205.753870338841
 31
0.0
  0
LINE
  5
148
330
1F
100
AcDbEntity
  8
DXF_box-20180324_000352_959227_Model_0
 62
   178
420
        0
 48
25.39999961853027
370
   200
100
AcDbLine
 10
579.6643579261354
 20
1205.753870338841
 30
0.0
 11
575.6645595034663
 21
1205.753870338841
 31
0.0
  0
LINE
  5
149
330
1F
100
AcDbEntity
  8
DXF_box-20180324_000352_959227_Model_0
 62
   178
420
        0
 48
25.39999961853027
370
   200
100
AcDbLine
 10
583.8562885025035
 20
1042.29659338666
 30
0.0
 11
594.7403553711026
 21
1042.29659338666
 31
0.0
  0
LINE
  5
14A
330
1F
100
AcDbEntity
  8
DXF_box-20180324_000352_959227_Model_0
 62
   178
420
        0
 48
25.39999961853027
370
   200
100
AcDbLine
 10
594.7403553711026
 20
1046.296391809329
 30
0.0
 11
594.7403553711026
 21
1042.29659338666
 31
0.0
  0
LINE
  5
14B
330
1F
100
AcDbEntity
  8
DXF_box-20180324_000352_959227_Model_0
 62
   178
420
        0
 48
25.39999961853027
370
   200
100
AcDbLine
 10
594.7403553711026
 20
1046.296391809329
 30
0.0
 11
605.324437357737
 21
1046.296391809329
 31
0.0
  0
LINE
  5
14C
330
1F
100
AcDbEntity
  8
DXF_box-20180324_000352_959227_Model_0
 62
   178
420
        0
 48
25.39999961853027
370
   200
100
AcDbLine
 10
605.324437357737
 20
1046.296391809329
 30
0.0
 11
605.324437357737
 21
1042.29659338666
 31
0.0
  0
LINE
  5
14D
330
1F
100
AcDbEntity
  8
DXF_box-20180324_000352_959227_Model_0
 62
   178
420
        0
 48
25.39999961853027
370
   200
100
AcDbLine
 10
605.324437357737
 20
1042.29659338666
 30
0.0
 11
616.3084991869912
 21
1042.29659338666
 31
0.0
  0
LINE
  5
14E
330
1F
100
AcDbEntity
  8
DXF_box-20180324_000352_959227_Model_0
 62
   178
420
        0
 48
25.39999961853027
370
   200
100
AcDbLine
 10
616.3084991869912
 20
1046.296391809329
 30
0.0
 11
616.3084991869912
 21
1042.29659338666
 31
0.0
  0
LINE
  5
14F
330
1F
100
AcDbEntity
  8
DXF_box-20180324_000352_959227_Model_0
 62
   178
420
        0
 48
25.39999961853027
370
   200
100
AcDbLine
 10
616.3084991869912
 20
1046.296391809329
 30
0.0
 11
626.8925811736254
 21
1046.296391809329
 31
0.0
  0
LINE
  5
150
330
1F
100
AcDbEntity
  8
DXF_box-20180324_000352_959227_Model_0
 62
   178
420
        0
 48
25.39999961853027
370
   200
100
AcDbLine
 10
626.8925811736254
 20
1046.296391809329
 30
0.0
 11
626.8925811736254
 21
1042.29659338666
 31
0.0
  0
LINE
  5
151
330
1F
100
AcDbEntity
  8
DXF_box-20180324_000352_959227_Model_0
 62
   178
420
        0
 48
25.39999961853027
370
   200
100
AcDbLine
 10
626.8925811736254
 20
1042.29659338666
 30
0.0
 11
637.8766430028795
 21
1042.29659338666
 31
0.0
  0
LINE
  5
152
330
1F
100
AcDbEntity
  8
DXF_box-20180324_000352_959227_Model_0
 62
   178
420
        0
 48
25.39999961853027
370
   200
100
AcDbLine
 10
637.8766430028795
 20
1046.296391809329
 30
0.0
 11
637.8766430028795
 21
1042.29659338666
 31
0.0
  0
LINE
  5
153
330
1F
100
AcDbEntity
  8
DXF_box-20180324_000352_959227_Model_0
 62
   178
420
        0
 48
25.39999961853027
370
   200
100
AcDbLine
 10
637.8766430028795
 20
1046.296391809329
 30
0.0
 11
648.4607249895138
 21
1046.296391809329
 31
0.0
  0
LINE
  5
154
330
1F
100
AcDbEntity
  8
DXF_box-20180324_000352_959227_Model_0
 62
   178
420
        0
 48
25.39999961853027
370
   200
100
AcDbLine
 10
648.4607249895138
 20
1046.296391809329
 30
0.0
 11
648.4607249895138
 21
1042.29659338666
 31
0.0
  0
LINE
  5
155
330
1F
100
AcDbEntity
  8
DXF_box-20180324_000352_959227_Model_0
 62
   178
420
        0
 48
25.39999961853027
370
   200
100
AcDbLine
 10
648.4607249895138
 20
1042.29659338666
 30
0.0
 11
659.4447868187679
 21
1042.29659338666
 31
0.0
  0
LINE
  5
156
330
1F
100
AcDbEntity
  8
DXF_box-20180324_000352_959227_Model_0
 62
   178
420
        0
 48
25.39999961853027
370
   200
100
AcDbLine
 10
659.4447868187679
 20
1046.296391809329
 30
0.0
 11
659.4447868187679
 21
1042.29659338666
 31
0.0
  0
LINE
  5
157
330
1F
100
AcDbEntity
  8
DXF_box-20180324_000352_959227_Model_0
 62
   178
420
        0
 48
25.39999961853027
370
   200
100
AcDbLine
 10
659.4447868187679
 20
1046.296391809329
 30
0.0
 11
670.0288688054022
 21
1046.296391809329
 31
0.0
  0
LINE
  5
158
330
1F
100
AcDbEntity
  8
DXF_box-20180324_000352_959227_Model_0
 62
   178
420
        0
 48
25.39999961853027
370
   200
100
AcDbLine
 10
670.0288688054022
 20
1046.296391809329
 30
0.0
 11
670.0288688054022
 21
1042.29659338666
 31
0.0
  0
LINE
  5
159
330
1F
100
AcDbEntity
  8
DXF_box-20180324_000352_959227_Model_0
 62
   178
420
        0
 48
25.39999961853027
370
   200
100
AcDbLine
 10
670.0288688054022
 20
1042.29659338666
 30
0.0
 11
681.0129306346563
 21
1042.29659338666
 31
0.0
  0
LINE
  5
15A
330
1F
100
AcDbEntity
  8
DXF_box-20180324_000352_959227_Model_0
 62
   178
420
        0
 48
25.39999961853027
370
   200
100
AcDbLine
 10
681.0129306346563
 20
1046.296391809329
 30
0.0
 11
681.0129306346563
 21
1042.29659338666
 31
0.0
  0
LINE
  5
15B
330
1F
100
AcDbEntity
  8
DXF_box-20180324_000352_959227_Model_0
 62
   178
420
        0
 48
25.39999961853027
370
   200
100
AcDbLine
 10
681.0129306346563
 20
1046.296391809329
 30
0.0
 11
691.5970126212907
 21
1046.296391809329
 31
0.0
  0
LINE
  5
15C
330
1F
100
AcDbEntity
  8
DXF_box-20180324_000352_959227_Model_0
 62
   178
420
        0
 48
25.39999961853027
370
   200
100
AcDbLine
 10
691.5970126212907
 20
1046.296391809329
 30
0.0
 11
691.5970126212907
 21
1042.29659338666
 31
0.0
  0
LINE
  5
15D
330
1F
100
AcDbEntity
  8
DXF_box-20180324_000352_959227_Model_0
 62
   178
420
        0
 48
25.39999961853027
370
   200
100
AcDbLine
 10
691.5970126212907
 20
1042.29659338666
 30
0.0
 11
702.5810744505447
 21
1042.29659338666
 31
0.0
  0
LINE
  5
15E
330
1F
100
AcDbEntity
  8
DXF_box-20180324_000352_959227_Model_0
 62
   178
420
        0
 48
25.39999961853027
370
   200
100
AcDbLine
 10
702.5810744505447
 20
1046.296391809329
 30
0.0
 11
702.5810744505447
 21
1042.29659338666
 31
0.0
  0
LINE
  5
15F
330
1F
100
AcDbEntity
  8
DXF_box-20180324_000352_959227_Model_0
 62
   178
420
        0
 48
25.39999961853027
370
   200
100
AcDbLine
 10
702.5810744505447
 20
1046.296391809329
 30
0.0
 11
713.1651564371791
 21
1046.296391809329
 31
0.0
  0
LINE
  5
160
330
1F
100
AcDbEntity
  8
DXF_box-20180324_000352_959227_Model_0
 62
   178
420
        0
 48
25.39999961853027
370
   200
100
AcDbLine
 10
713.1651564371791
 20
1046.296391809329
 30
0.0
 11
713.1651564371791
 21
1042.29659338666
 31
0.0
  0
LINE
  5
161
330
1F
100
AcDbEntity
  8
DXF_box-20180324_000352_959227_Model_0
 62
   178
420
        0
 48
25.39999961853027
370
   200
100
AcDbLine
 10
713.1651564371791
 20
1042.29659338666
 30
0.0
 11
720.0494248806397
 21
1042.29659338666
 31
0.0
  0
LINE
  5
162
330
1F
100
AcDbEntity
  8
DXF_box-20180324_000352_959227_Model_0
 62
   178
420
        0
 48
25.39999961853027
370
   200
100
AcDbLine
 10
583.8562885025035
 20
1042.29659338666
 30
0.0
 11
583.8562885025035
 21
1052.732909539145
 31
0.0
  0
LINE
  5
163
330
1F
100
AcDbEntity
  8
DXF_box-20180324_000352_959227_Model_0
 62
   178
420
        0
 48
25.39999961853027
370
   200
100
AcDbLine
 10
587.8560869276421
 20
1052.732909539145
 30
0.0
 11
583.8562885025035
 21
1052.732909539145
 31
0.0
  0
LINE
  5
164
330
1F
100
AcDbEntity
  8
DXF_box-20180324_000352_959227_Model_0
 62
   178
420
        0
 48
25.39999961853027
370
   200
100
AcDbLine
 10
587.8560869276421
 20
1052.732909539145
 30
0.0
 11
587.8560869276421
 21
1063.46921057677
 31
0.0
  0
LINE
  5
165
330
1F
100
AcDbEntity
  8
DXF_box-20180324_000352_959227_Model_0
 62
   178
420
        0
 48
25.39999961853027
370
   200
100
AcDbLine
 10
587.8560869276421
 20
1063.46921057677
 30
0.0
 11
583.8562885025035
 21
1063.46921057677
 31
0.0
  0
LINE
  5
166
330
1F
100
AcDbEntity
  8
DXF_box-20180324_000352_959227_Model_0
 62
   178
420
        0
 48
25.39999961853027
370
   200
100
AcDbLine
 10
583.8562885025035
 20
1063.46921057677
 30
0.0
 11
583.8562885025035
 21
1073.805531771069
 31
0.0
  0
LINE
  5
167
330
1F
100
AcDbEntity
  8
DXF_box-20180324_000352_959227_Model_0
 62
   178
420
        0
 48
25.39999961853027
370
   200
100
AcDbLine
 10
587.8560869276421
 20
1073.805531771069
 30
0.0
 11
583.8562885025035
 21
1073.805531771069
 31
0.0
  0
LINE
  5
168
330
1F
100
AcDbEntity
  8
DXF_box-20180324_000352_959227_Model_0
 62
   178
420
        0
 48
25.39999961853027
370
   200
100
AcDbLine
 10
587.8560869276421
 20
1073.805531771069
 30
0.0
 11
587.8560869276421
 21
1084.541832805167
 31
0.0
  0
LINE
  5
169
330
1F
100
AcDbEntity
  8
DXF_box-20180324_000352_959227_Model_0
 62
   178
420
        0
 48
25.39999961853027
370
   200
100
AcDbLine
 10
587.8560869276421
 20
1084.541832805167
 30
0.0
 11
583.8562885025035
 21
1084.541832805167
 31
0.0
  0
LINE
  5
16A
330
1F
100
AcDbEntity
  8
DXF_box-20180324_000352_959227_Model_0
 62
   178
420
        0
 48
25.39999961853027
370
   200
100
AcDbLine
 10
583.8562885025035
 20
1084.541832805167
 30
0.0
 11
583.8562885025035
 21
1094.878153999466
 31
0.0
  0
LINE
  5
16B
330
1F
100
AcDbEntity
  8
DXF_box-20180324_000352_959227_Model_0
 62
   178
420
        0
 48
25.39999961853027
370
   200
100
AcDbLine
 10
587.8560869276421
 20
1094.878153999466
 30
0.0
 11
583.8562885025035
 21
1094.878153999466
 31
0.0
  0
LINE
  5
16C
330
1F
100
AcDbEntity
  8
DXF_box-20180324_000352_959227_Model_0
 62
   178
420
        0
 48
25.39999961853027
370
   200
100
AcDbLine
 10
587.8560869276421
 20
1094.878153999466
 30
0.0
 11
587.8560869276421
 21
1105.614455033563
 31
0.0
  0
LINE
  5
16D
330
1F
100
AcDbEntity
  8
DXF_box-20180324_000352_959227_Model_0
 62
   178
420
        0
 48
25.39999961853027
370
   200
100
AcDbLine
 10
587.8560869276421
 20
1105.614455033563
 30
0.0
 11
583.8562885025035
 21
1105.614455033563
 31
0.0
  0
LINE
  5
16E
330
1F
100
AcDbEntity
  8
DXF_box-20180324_000352_959227_Model_0
 62
   178
420
        0
 48
25.39999961853027
370
   200
100
AcDbLine
 10
583.8562885025035
 20
1105.614455033563
 30
0.0
 11
583.8562885025035
 21
1115.950776227863
 31
0.0
  0
LINE
  5
16F
330
1F
100
AcDbEntity
  8
DXF_box-20180324_000352_959227_Model_0
 62
   178
420
        0
 48
25.39999961853027
370
   200
100
AcDbLine
 10
587.8560869276421
 20
1115.950776227863
 30
0.0
 11
583.8562885025035
 21
1115.950776227863
 31
0.0
  0
LINE
  5
170
330
1F
100
AcDbEntity
  8
DXF_box-20180324_000352_959227_Model_0
 62
   178
420
        0
 48
25.39999961853027
370
   200
100
AcDbLine
 10
587.8560869276421
 20
1115.950776227863
 30
0.0
 11
587.8560869276421
 21
1126.687077265488
 31
0.0
  0
LINE
  5
171
330
1F
100
AcDbEntity
  8
DXF_box-20180324_000352_959227_Model_0
 62
   178
420
        0
 48
25.39999961853027
370
   200
100
AcDbLine
 10
587.8560869276421
 20
1126.687077265488
 30
0.0
 11
583.8562885025035
 21
1126.687077265488
 31
0.0
  0
LINE
  5
172
330
1F
100
AcDbEntity
  8
DXF_box-20180324_000352_959227_Model_0
 62
   178
420
        0
 48
25.39999961853027
370
   200
100
AcDbLine
 10
583.8562885025035
 20
1126.687077265488
 30
0.0
 11
583.8562885025035
 21
1137.023398459787
 31
0.0
  0
LINE
  5
173
330
1F
100
AcDbEntity
  8
DXF_box-20180324_000352_959227_Model_0
 62
   178
420
        0
 48
25.39999961853027
370
   200
100
AcDbLine
 10
587.8560869276421
 20
1137.023398459787
 30
0.0
 11
583.8562885025035
 21
1137.023398459787
 31
0.0
  0
LINE
  5
174
330
1F
100
AcDbEntity
  8
DXF_box-20180324_000352_959227_Model_0
 62
   178
420
        0
 48
25.39999961853027
370
   200
100
AcDbLine
 10
587.8560869276421
 20
1137.023398459787
 30
0.0
 11
587.8560869276421
 21
1147.759699493884
 31
0.0
  0
LINE
  5
175
330
1F
100
AcDbEntity
  8
DXF_box-20180324_000352_959227_Model_0
 62
   178
420
        0
 48
25.39999961853027
370
   200
100
AcDbLine
 10
587.8560869276421
 20
1147.759699493884
 30
0.0
 11
583.8562885025035
 21
1147.759699493884
 31
0.0
  0
LINE
  5
176
330
1F
100
AcDbEntity
  8
DXF_box-20180324_000352_959227_Model_0
 62
   178
420
        0
 48
25.39999961853027
370
   200
100
AcDbLine
 10
583.8562885025035
 20
1147.759699493884
 30
0.0
 11
583.8562885025035
 21
1158.096020688184
 31
0.0
  0
LINE
  5
177
330
1F
100
AcDbEntity
  8
DXF_box-20180324_000352_959227_Model_0
 62
   178
420
        0
 48
25.39999961853027
370
   200
100
AcDbLine
 10
720.0494248806397
 20
1042.29659338666
 30
0.0
 11
720.0494248806397
 21
1052.732909539145
 31
0.0
  0
LINE
  5
178
330
1F
100
AcDbEntity
  8
DXF_box-20180324_000352_959227_Model_0
 62
   178
420
        0
 48
25.39999961853027
370
   200
100
AcDbLine
 10
724.0492233057781
 20
1052.732909539145
 30
0.0
 11
720.0494248806397
 21
1052.732909539145
 31
0.0
  0
LINE
  5
179
330
1F
100
AcDbEntity
  8
DXF_box-20180324_000352_959227_Model_0
 62
   178
420
        0
 48
25.39999961853027
370
   200
100
AcDbLine
 10
724.0492233057781
 20
1052.732909539145
 30
0.0
 11
724.0492233057781
 21
1063.46921057677
 31
0.0
  0
LINE
  5
17A
330
1F
100
AcDbEntity
  8
DXF_box-20180324_000352_959227_Model_0
 62
   178
420
        0
 48
25.39999961853027
370
   200
100
AcDbLine
 10
724.0492233057781
 20
1063.46921057677
 30
0.0
 11
720.0494248806397
 21
1063.46921057677
 31
0.0
  0
LINE
  5
17B
330
1F
100
AcDbEntity
  8
DXF_box-20180324_000352_959227_Model_0
 62
   178
420
        0
 48
25.39999961853027
370
   200
100
AcDbLine
 10
720.0494248806397
 20
1063.46921057677
 30
0.0
 11
720.0494248806397
 21
1073.805531771069
 31
0.0
  0
LINE
  5
17C
330
1F
100
AcDbEntity
  8
DXF_box-20180324_000352_959227_Model_0
 62
   178
420
        0
 48
25.39999961853027
370
   200
100
AcDbLine
 10
724.0492233057781
 20
1073.805531771069
 30
0.0
 11
720.0494248806397
 21
1073.805531771069
 31
0.0
  0
LINE
  5
17D
330
1F
100
AcDbEntity
  8
DXF_box-20180324_000352_959227_Model_0
 62
   178
420
        0
 48
25.39999961853027
370
   200
100
AcDbLine
 10
724.0492233057781
 20
1073.805531771069
 30
0.0
 11
724.0492233057781
 21
1084.541832805167
 31
0.0
  0
LINE
  5
17E
330
1F
100
AcDbEntity
  8
DXF_box-20180324_000352_959227_Model_0
 62
   178
420
        0
 48
25.39999961853027
370
   200
100
AcDbLine
 10
724.0492233057781
 20
1084.541832805167
 30
0.0
 11
720.0494248806397
 21
1084.541832805167
 31
0.0
  0
LINE
  5
17F
330
1F
100
AcDbEntity
  8
DXF_box-20180324_000352_959227_Model_0
 62
   178
420
        0
 48
25.39999961853027
370
   200
100
AcDbLine
 10
720.0494248806397
 20
1084.541832805167
 30
0.0
 11
720.0494248806397
 21
1094.878153999466
 31
0.0
  0
LINE
  5
180
330
1F
100
AcDbEntity
  8
DXF_box-20180324_000352_959227_Model_0
 62
   178
420
        0
 48
25.39999961853027
370
   200
100
AcDbLine
 10
724.0492233057781
 20
1094.878153999466
 30
0.0
 11
720.0494248806397
 21
1094.878153999466
 31
0.0
  0
LINE
  5
181
330
1F
100
AcDbEntity
  8
DXF_box-20180324_000352_959227_Model_0
 62
   178
420
        0
 48
25.39999961853027
370
   200
100
AcDbLine
 10
724.0492233057781
 20
1094.878153999466
 30
0.0
 11
724.0492233057781
 21
1105.614455033563
 31
0.0
  0
LINE
  5
182
330
1F
100
AcDbEntity
  8
DXF_box-20180324_000352_959227_Model_0
 62
   178
420
        0
 48
25.39999961853027
370
   200
100
AcDbLine
 10
724.0492233057781
 20
1105.614455033563
 30
0.0
 11
720.0494248806397
 21
1105.614455033563
 31
0.0
  0
LINE
  5
183
330
1F
100
AcDbEntity
  8
DXF_box-20180324_000352_959227_Model_0
 62
   178
420
        0
 48
25.39999961853027
370
   200
100
AcDbLine
 10
720.0494248806397
 20
1105.614455033563
 30
0.0
 11
720.0494248806397
 21
1115.950776227863
 31
0.0
  0
LINE
  5
184
330
1F
100
AcDbEntity
  8
DXF_box-20180324_000352_959227_Model_0
 62
   178
420
        0
 48
25.39999961853027
370
   200
100
AcDbLine
 10
724.0492233057781
 20
1115.950776227863
 30
0.0
 11
720.0494248806397
 21
1115.950776227863
 31
0.0
  0
LINE
  5
185
330
1F
100
AcDbEntity
  8
DXF_box-20180324_000352_959227_Model_0
 62
   178
420
        0
 48
25.39999961853027
370
   200
100
AcDbLine
 10
724.0492233057781
 20
1115.950776227863
 30
0.0
 11
724.0492233057781
 21
1126.687077265488
 31
0.0
  0
LINE
  5
186
330
1F
100
AcDbEntity
  8
DXF_box-20180324_000352_959227_Model_0
 62
   178
420
        0
 48
25.39999961853027
370
   200
100
AcDbLine
 10
724.0492233057781
 20
1126.687077265488
 30
0.0
 11
720.0494248806397
 21
1126.687077265488
 31
0.0
  0
LINE
  5
187
330
1F
100
AcDbEntity
  8
DXF_box-20180324_000352_959227_Model_0
 62
   178
420
        0
 48
25.39999961853027
370
   200
100
AcDbLine
 10
720.0494248806397
 20
1126.687077265488
 30
0.0
 11
720.0494248806397
 21
1137.023398459787
 31
0.0
  0
LINE
  5
188
330
1F
100
AcDbEntity
  8
DXF_box-20180324_000352_959227_Model_0
 62
   178
420
        0
 48
25.39999961853027
370
   200
100
AcDbLine
 10
724.0492233057781
 20
1137.023398459787
 30
0.0
 11
720.0494248806397
 21
1137.023398459787
 31
0.0
  0
LINE
  5
189
330
1F
100
AcDbEntity
  8
Layer1
 62
   178
420
        0
 48
25.39999961853027
370
    25
100
AcDbLine
 10
583.8562885025035
 20
1212.486504567012
 30
0.0
 11
583.8562885025035
 21
1147.759699493884
 31
0.0
  0
ARC
  5
18A
330
1F
100
AcDbEntity
  8
Layer1
 62
   178
420
        0
 48
25.39999961853027
370
    25
100
AcDbCircle
 10
613.8562885025037
 20
1212.486504567012
 30
0.0
 40
30.0
100
AcDbArc
 50
90.0
 51
180.0000000000006
  0
LINE
  5
18B
330
1F
100
AcDbEntity
  8
Layer1
 62
   178
420
        0
 48
25.39999961853027
370
    25
100
AcDbLine
 10
613.8562885025036
 20
1242.486504567012
 30
0.0
 11
694.049223305778
 21
1242.486504567012
 31
0.0
  0
LINE
  5
18C
330
1F
100
AcDbEntity
  8
Layer1
 62
   178
420
        0
 48
25.39999961853027
370
    25
100
AcDbLine
 10
724.0492233057781
 20
1137.023398459787
 30
0.0
 11
724.0492233057781
 21
1212.486504567012
 31
0.0
  0
ARC
  5
18D
330
1F
100
AcDbEntity
  8
Layer1
 62
   178
420
        0
 48
25.39999961853027
370
    25
100
AcDbCircle
 10
694.0492233057779
 20
1212.486504567012
 30
0.0
 40
30.00000000000023
100
AcDbArc
 50
0.000000000000573
 51
90.0
  0
LINE
  5
18E
330
1F
100
AcDbEntity
  8
Layer1
 62
   178
420
        0
 48
25.39999961853027
370
    25
100
AcDbLine
 10
728.884464043353
 20
1190.997580127655
 30
0.0
 11
865.0776004214888
 21
1190.997580127655
 31
0.0
  0
LINE
  5
18F
330
1F
100
AcDbEntity
  8
Layer1
 62
   178
420
        0
 48
25.39999961853027
370
    25
100
AcDbLine
 10
470.2617435536349
 20
1147.885636384816
 30
0.0
 11
576.4989327474055
 21
1148.041638131101
 31
0.0
  0
LINE
  5
190
330
1F
100
AcDbEntity
  8
Layer1
 62
   178
420
        0
 48
25.39999961853027
370
    25
100
AcDbLine
 10
440.3057963695869
 20
1095.360082556934
 30
0.0
 11
440.3057963695869
 21
1117.88566872901
 31
0.0
  0
ARC
  5
191
330
1F
100
AcDbEntity
  8
Layer1
 62
   178
420
        0
 48
25.39999961853027
370
    25
100
AcDbCircle
 10
470.305796369587
 20
1117.88566872901
 30
0.0
 40
30.00000000000012
100
AcDbArc
 50
90.08413471122711
 51
179.9999999999994
  0
LINE
  5
192
330
1F
100
AcDbEntity
  8
Layer1
 62
   178
420
        0
 48
25.39999961853027
370
    25
100
AcDbLine
 10
549.6203051101828
 20
1258.591298282447
 30
0.0
 11
443.4712215497629
 21
1258.435425913008
 31
0.0
  0
LINE
  5
193
330
1F
100
AcDbEntity
  8
Layer1
 62
   178
420
        0
 48
25.39999961853027
370
    25
100
AcDbLine
 10
579.6643579261354
 20
1205.753870338841
 30
0.0
 11
579.6643579261354
 21
1228.591330626642
 31
0.0
  0
ARC
  5
194
330
1F
100
AcDbEntity
  8
Layer1
 62
   178
420
        0
 48
25.39999961853027
370
    25
100
AcDbCircle
 10
549.6643579261353
 20
1228.591330626641
 30
0.0
 40
30.00000000000035
100
AcDbArc
 50
0.0000000000008685
 51
90.08413471122776
  0
ENDSEC
  0
SECTION
  2
OBJECTS
  0
DICTIONARY
  5
C
330
0
100
AcDbDictionary
281
     1
  3
ACAD_GROUP
350
D
  3
ACAD_LAYOUT
350
1A
  3
ACAD_MATERIAL
350
3B
  3
ACAD_MLEADERSTYLE
350
196
  3
ACAD_MLINESTYLE
350
17
  3
ACAD_PLOTSETTINGS
350
19
  3
ACAD_PLOTSTYLENAME
350
E
  3
ACAD_TABLESTYLE
350
195
  3
ACAD_VISUALSTYLE
350
2A
  0
DICTIONARY
  5
D
102
{ACAD_REACTORS
330
C
102
}
330
C
100
AcDbDictionary
281
     1
  0
DICTIONARY
  5
1A
102
{ACAD_REACTORS
330
C
102
}
330
C
100
AcDbDictionary
281
     1
  3
Layout1
350
1E
  3
Layout2
350
26
  3
Model
350
22
  0
DICTIONARY
  5
3B
102
{ACAD_REACTORS
330
C
102
}
330
C
100
AcDbDictionary
281
     1
  3
ByBlock
350
3D
  3
ByLayer
350
3C
  3
Global
350
3E
  0
DICTIONARY
  5
196
102
{ACAD_REACTORS
330
C
102
}
330
C
100
AcDbDictionary
281
     1
  0
DICTIONARY
  5
17
102
{ACAD_REACTORS
330
C
102
}
330
C
100
AcDbDictionary
281
     1
  3
Standard
350
18
  0
DICTIONARY
  5
19
102
{ACAD_REACTORS
330
C
102
}
330
C
100
AcDbDictionary
281
     1
  0
ACDBDICTIONARYWDFLT
  5
E
102
{ACAD_REACTORS
330
C
102
}
330
C
100
AcDbDictionary
281
     1
  3
Normal
350
F
100
AcDbDictionaryWithDefault
340
F
  0
DICTIONARY
  5
195
102
{ACAD_REACTORS
330
C
102
}
330
C
100
AcDbDictionary
281
     1
  0
DICTIONARY
  5
2A
102
{ACAD_REACTORS
330
C
102
}
330
C
100
AcDbDictionary
281
     1
  3
2dWireframe
350
2F
  3
3D Hidden
350
31
  3
3dWireframe
350
30
  3
Basic
350
32
  3
Brighten
350
36
  3
ColorChange
350
3A
  3
Conceptual
350
34
  3
Dim
350
35
  3
Facepattern
350
39
  3
Flat
350
2B
  3
FlatWithEdges
350
2C
  3
Gouraud
350
2D
  3
GouraudWithEdges
350
2E
  3
Linepattern
350
38
  3
Realistic
350
33
  3
Thicken
350
37
  0
LAYOUT
  5
1E
102
{ACAD_REACTORS
330
1A
102
}
330
1A
100
AcDbPlotSettings
  1

  2
none_device
  4

  6

 40
0.0
 41
0.0
 42
0.0
 43
0.0
 44
0.0
 45
0.0
 46
0.0
 47
0.0
 48
0.0
 49
0.0
140
0.0
141
0.0
142
1.0
143
1.0
 70
   688
 72
     0
 73
     0
 74
     5
  7

 75
    16
 76
     0
 77
     2
 78
   300
147
1.0
148
0.0
149
0.0
100
AcDbLayout
  1
Layout1
 70
     1
 71
     1
 10
0.0
 20
0.0
 11
420.0
 21
297.0
 12
0.0
 22
0.0
 32
0.0
 14
1.000000000000000E+20
 24
1.000000000000000E+20
 34
1.000000000000000E+20
 15
-1.000000000000000E+20
 25
-1.000000000000000E+20
 35
-1.000000000000000E+20
146
0.0
 13
0.0
 23
0.0
 33
0.0
 16
1.0
 26
0.0
 36
0.0
 17
0.0
 27
1.0
 37
0.0
 76
     0
330
1B
  0
LAYOUT
  5
26
102
{ACAD_REACTORS
330
1A
102
}
330
1A
100
AcDbPlotSettings
  1

  2
none_device
  4

  6

 40
0.0
 41
0.0
 42
0.0
 43
0.0
 44
0.0
 45
0.0
 46
0.0
 47
0.0
 48
0.0
 49
0.0
140
0.0
141
0.0
142
1.0
143
1.0
 70
   688
 72
     0
 73
     0
 74
     5
  7

 75
    16
 76
     0
 77
     2
 78
   300
147
1.0
148
0.0
149
0.0
100
AcDbLayout
  1
Layout2
 70
     1
 71
     2
 10
0.0
 20
0.0
 11
0.0
 21
0.0
 12
0.0
 22
0.0
 32
0.0
 14
0.0
 24
0.0
 34
0.0
 15
0.0
 25
0.0
 35
0.0
146
0.0
 13
0.0
 23
0.0
 33
0.0
 16
1.0
 26
0.0
 36
0.0
 17
0.0
 27
1.0
 37
0.0
 76
     0
330
23
  0
LAYOUT
  5
22
102
{ACAD_REACTORS
330
1A
102
}
330
1A
100
AcDbPlotSettings
  1

  2
none_device
  4

  6

 40
0.0
 41
0.0
 42
0.0
 43
0.0
 44
0.0
 45
0.0
 46
0.0
 47
0.0
 48
0.0
 49
0.0
140
0.0
141
0.0
142
1.0
143
1.0
 70
  1712
 72
     0
 73
     0
 74
     0
  7

 75
     0
 76
     0
 77
     2
 78
   300
147
1.0
148
0.0
149
0.0
100
AcDbLayout
  1
Model
 70
     1
 71
     0
 10
0.0
 20
0.0
 11
420.0
 21
297.0
 12
0.0
 22
0.0
 32
0.0
 14
436.3059979444132
 24
1042.29659338666
 34
0.0
 15
1085.463099297735
 25
1366.738650730342
 35
182.2701056279646
146
0.0
 13
0.0
 23
0.0
 33
0.0
 16
1.0
 26
0.0
 36
0.0
 17
0.0
 27
1.0
 37
0.0
 76
     0
330
1F
331
29
  0
MATERIAL
  5
3D
102
{ACAD_REACTORS
330
3B
102
}
330
3B
100
AcDbMaterial
  1
ByBlock
 72
     1
 94
      127
  0
MATERIAL
  5
3C
102
{ACAD_REACTORS
330
3B
102
}
330
3B
100
AcDbMaterial
  1
ByLayer
 72
     1
 94
      127
  0
MATERIAL
  5
3E
102
{ACAD_REACTORS
330
3B
102
}
330
3B
100
AcDbMaterial
  1
Global
 72
     1
 94
      127
  0
MLINESTYLE
  5
18
102
{ACAD_REACTORS
330
17
102
}
330
17
100
AcDbMlineStyle
  2
Standard
 70
     0
  3

 62
   256
 51
90.0
 52
90.0
 71
     2
 49
0.5
 62
   256
  6
BYLAYER
 49
-0.5
 62
   256
  6
BYLAYER
  0
ACDBPLACEHOLDER
  5
F
102
{ACAD_REACTORS
330
E
102
}
330
E
  0
VISUALSTYLE
  5
2F
102
{ACAD_REACTORS
330
2A
102
}
330
2A
100
AcDbVisualStyle
  2
2dWireframe
 70
     4
177
     2
291
     0
 71
     0
176
     1
 72
     2
176
     1
 73
     0
176
     1
 90
        0
176
     1
 40
-0.6
176
     1
 41
-30.0
176
     1
 62
     5
 63
     7
421
 16777215
176
     1
 74
     1
176
     1
 91
        4
176
     1
 64
     7
176
     1
 65
   257
176
     1
 75
     1
176
     1
175
     1
176
     1
 42
1.0
176
     1
 92
        0
176
     1
 66
   257
176
     1
 43
1.0
176
     1
 76
     1
176
     1
 77
     6
176
     1
 78
     2
176
     1
 67
     7
176
     1
 79
     5
176
     1
170
     0
176
     1
171
     0
176
     1
290
     0
176
     1
 93
        1
176
     1
 44
0.0
176
     1
173
     0
176
     1
  0
VISUALSTYLE
  5
31
102
{ACAD_REACTORS
330
2A
102
}
330
2A
100
AcDbVisualStyle
  2
3D Hidden
 70
     6
177
     2
291
     0
 71
     1
176
     1
 72
     2
176
     1
 73
     2
176
     1
 90
        0
176
     1
 40
-0.6
176
     1
 41
-30.0
176
     1
 62
     5
 63
     7
421
 16777215
176
     1
 74
     2
176
     1
 91
        2
176
     1
 64
     7
176
     1
 65
   257
176
     1
 75
     2
176
     1
175
     1
176
     1
 42
40.0
176
     1
 92
        0
176
     1
 66
   257
176
     1
 43
1.0
176
     1
 76
     1
176
     1
 77
     6
176
     1
 78
     2
176
     1
 67
     7
176
     1
 79
     3
176
     1
170
     0
176
     1
171
     0
176
     1
290
     0
176
     1
 93
        1
176
     1
 44
0.0
176
     1
173
     0
176
     1
  0
VISUALSTYLE
  5
30
102
{ACAD_REACTORS
330
2A
102
}
330
2A
100
AcDbVisualStyle
  2
3dWireframe
 70
     5
177
     2
291
     0
 71
     0
176
     1
 72
     2
176
     1
 73
     0
176
     1
 90
        0
176
     1
 40
-0.6
176
     1
 41
-30.0
176
     1
 62
     5
 63
     7
421
 16777215
176
     1
 74
     1
176
     1
 91
        4
176
     1
 64
     7
176
     1
 65
   257
176
     1
 75
     1
176
     1
175
     1
176
     1
 42
1.0
176
     1
 92
        0
176
     1
 66
   257
176
     1
 43
1.0
176
     1
 76
     1
176
     1
 77
     6
176
     1
 78
     2
176
     1
 67
     7
176
     1
 79
     5
176
     1
170
     0
176
     1
171
     0
176
     1
290
     0
176
     1
 93
        1
176
     1
 44
0.0
176
     1
173
     0
176
     1
  0
VISUALSTYLE
  5
32
102
{ACAD_REACTORS
330
2A
102
}
330
2A
100
AcDbVisualStyle
  2
Basic
 70
     7
177
     2
291
     1
 71
     1
176
     1
 72
     0
176
     1
 73
     1
176
     1
 90
        0
176
     1
 40
-0.6
176
     1
 41
-30.0
176
     1
 62
     5
 63
     7
421
 16777215
176
     1
 74
     0
176
     1
 91
        4
176
     1
 64
     7
176
     1
 65
   257
176
     1
 75
     1
176
     1
175
     1
176
     1
 42
1.0
176
     1
 92
        8
176
     1
 66
     7
176
     1
 43
1.0
176
     1
 76
     1
176
     1
 77
     6
176
     1
 78
     2
176
     1
 67
     7
176
     1
 79
     5
176
     1
170
     0
176
     1
171
     0
176
     1
290
     0
176
     1
 93
        1
176
     1
 44
0.0
176
     1
173
     0
176
     1
  0
VISUALSTYLE
  5
36
102
{ACAD_REACTORS
330
2A
102
}
330
2A
100
AcDbVisualStyle
  2
Brighten
 70
    12
177
     2
291
     1
 71
     2
176
     1
 72
     2
176
     1
 73
     0
176
     1
 90
        0
176
     1
 40
-0.6
176
     1
 41
-30.0
176
     1
 62
     5
 63
     7
421
 16777215
176
     1
 74
     1
176
     1
 91
        4
176
     1
 64
     7
176
     1
 65
   257
176
     1
 75
     1
176
     1
175
     1
176
     1
 42
1.0
176
     1
 92
        8
176
     1
 66
     7
176
     1
 43
1.0
176
     1
 76
     1
176
     1
 77
     6
176
     1
 78
     2
176
     1
 67
     7
176
     1
 79
     5
176
     1
170
     0
176
     1
171
     0
176
     1
290
     0
176
     1
 93
        1
176
     1
 44
50.0
176
     1
173
     0
176
     1
  0
VISUALSTYLE
  5
3A
102
{ACAD_REACTORS
330
2A
102
}
330
2A
100
AcDbVisualStyle
  2
ColorChange
 70
    16
177
     2
291
     1
 71
     2
176
     1
 72
     2
176
     1
 73
     3
176
     1
 90
        0
176
     1
 40
-0.6
176
     1
 41
-30.0
176
     1
 62
     5
 63
     8
421
  8421504
176
     1
 74
     1
176
     1
 91
        4
176
     1
 64
     7
176
     1
 65
   257
176
     1
 75
     1
176
     1
175
     1
176
     1
 42
1.0
176
     1
 92
        8
176
     1
 66
     8
424
  8421504
176
     1
 43
1.0
176
     1
 76
     1
176
     1
 77
     6
176
     1
 78
     2
176
     1
 67
     7
176
     1
 79
     5
176
     1
170
     0
176
     1
171
     0
176
     1
290
     0
176
     1
 93
        1
176
     1
 44
0.0
176
     1
173
     0
176
     1
  0
VISUALSTYLE
  5
34
102
{ACAD_REACTORS
330
2A
102
}
330
2A
100
AcDbVisualStyle
  2
Conceptual
 70
     9
177
     2
291
     0
 71
     3
176
     1
 72
     2
176
     1
 73
     0
176
     1
 90
        0
176
     1
 40
-0.6
176
     1
 41
-30.0
176
     1
 62
     5
 63
     7
421
 16777215
176
     1
 74
     2
176
     1
 91
        2
176
     1
 64
     7
176
     1
 65
   257
176
     1
 75
     1
176
     1
175
     1
176
     1
 42
40.0
176
     1
 92
        8
176
     1
 66
     7
176
     1
 43
1.0
176
     1
 76
     1
176
     1
 77
     6
176
     1
 78
     2
176
     1
 67
     7
176
     1
 79
     3
176
     1
170
     0
176
     1
171
     0
176
     1
290
     0
176
     1
 93
        1
176
     1
 44
0.0
176
     1
173
     0
176
     1
  0
VISUALSTYLE
  5
35
102
{ACAD_REACTORS
330
2A
102
}
330
2A
100
AcDbVisualStyle
  2
Dim
 70
    11
177
     2
291
     1
 71
     2
176
     1
 72
     2
176
     1
 73
     0
176
     1
 90
        0
176
     1
 40
-0.6
176
     1
 41
-30.0
176
     1
 62
     5
 63
     7
421
 16777215
176
     1
 74
     1
176
     1
 91
        4
176
     1
 64
     7
176
     1
 65
   257
176
     1
 75
     1
176
     1
175
     1
176
     1
 42
1.0
176
     1
 92
        8
176
     1
 66
     7
176
     1
 43
1.0
176
     1
 76
     1
176
     1
 77
     6
176
     1
 78
     2
176
     1
 67
     7
176
     1
 79
     5
176
     1
170
     0
176
     1
171
     0
176
     1
290
     0
176
     1
 93
        1
176
     1
 44
-50.0
176
     1
173
     0
176
     1
  0
VISUALSTYLE
  5
39
102
{ACAD_REACTORS
330
2A
102
}
330
2A
100
AcDbVisualStyle
  2
Facepattern
 70
    15
177
     2
291
     1
 71
     2
176
     1
 72
     2
176
     1
 73
     0
176
     1
 90
        0
176
     1
 40
-0.6
176
     1
 41
-30.0
176
     1
 62
     5
 63
     7
421
 16777215
176
     1
 74
     1
176
     1
 91
        4
176
     1
 64
     7
176
     1
 65
   257
176
     1
 75
     1
176
     1
175
     1
176
     1
 42
1.0
176
     1
 92
        8
176
     1
 66
     7
176
     1
 43
1.0
176
     1
 76
     1
176
     1
 77
     6
176
     1
 78
     2
176
     1
 67
     7
176
     1
 79
     5
176
     1
170
     0
176
     1
171
     0
176
     1
290
     0
176
     1
 93
        1
176
     1
 44
0.0
176
     1
173
     0
176
     1
  0
VISUALSTYLE
  5
2B
102
{ACAD_REACTORS
330
2A
102
}
330
2A
100
AcDbVisualStyle
  2
Flat
 70
     0
177
     2
291
     1
 71
     2
176
     1
 72
     1
176
     1
 73
     1
176
     1
 90
        2
176
     1
 40
-0.6
176
     1
 41
30.0
176
     1
 62
     5
 63
     7
421
 16777215
176
     1
 74
     0
176
     1
 91
        4
176
     1
 64
     7
176
     1
 65
   257
176
     1
 75
     1
176
     1
175
     1
176
     1
 42
1.0
176
     1
 92
        8
176
     1
 66
     7
176
     1
 43
1.0
176
     1
 76
     1
176
     1
 77
     6
176
     1
 78
     2
176
     1
 67
     7
176
     1
 79
     5
176
     1
170
     0
176
     1
171
     0
176
     1
290
     0
176
     1
 93
       13
176
     1
 44
0.0
176
     1
173
     0
176
     1
  0
VISUALSTYLE
  5
2C
102
{ACAD_REACTORS
330
2A
102
}
330
2A
100
AcDbVisualStyle
  2
FlatWithEdges
 70
     1
177
     2
291
     1
 71
     2
176
     1
 72
     1
176
     1
 73
     1
176
     1
 90
        2
176
     1
 40
-0.6
176
     1
 41
30.0
176
     1
 62
     5
 63
     7
421
 16777215
176
     1
 74
     1
176
     1
 91
        4
176
     1
 64
     7
176
     1
 65
   257
176
     1
 75
     1
176
     1
175
     1
176
     1
 42
1.0
176
     1
 92
        0
176
     1
 66
   257
176
     1
 43
1.0
176
     1
 76
     1
176
     1
 77
     6
176
     1
 78
     2
176
     1
 67
     7
176
     1
 79
     5
176
     1
170
     0
176
     1
171
     0
176
     1
290
     0
176
     1
 93
       13
176
     1
 44
0.0
176
     1
173
     0
176
     1
  0
VISUALSTYLE
  5
2D
102
{ACAD_REACTORS
330
2A
102
}
330
2A
100
AcDbVisualStyle
  2
Gouraud
 70
     2
177
     2
291
     1
 71
     2
176
     1
 72
     2
176
     1
 73
     1
176
     1
 90
        2
176
     1
 40
-0.6
176
     1
 41
30.0
176
     1
 62
     5
 63
     7
421
 16777215
176
     1
 74
     0
176
     1
 91
        4
176
     1
 64
     7
176
     1
 65
   257
176
     1
 75
     1
176
     1
175
     1
176
     1
 42
1.0
176
     1
 92
        0
176
     1
 66
     7
176
     1
 43
1.0
176
     1
 76
     1
176
     1
 77
     6
176
     1
 78
     2
176
     1
 67
     7
176
     1
 79
     5
176
     1
170
     0
176
     1
171
     0
176
     1
290
     0
176
     1
 93
       13
176
     1
 44
0.0
176
     1
173
     0
176
     1
  0
VISUALSTYLE
  5
2E
102
{ACAD_REACTORS
330
2A
102
}
330
2A
100
AcDbVisualStyle
  2
GouraudWithEdges
 70
     3
177
     2
291
     1
 71
     2
176
     1
 72
     2
176
     1
 73
     1
176
     1
 90
        2
176
     1
 40
-0.6
176
     1
 41
30.0
176
     1
 62
     5
 63
     7
421
 16777215
176
     1
 74
     1
176
     1
 91
        4
176
     1
 64
     7
176
     1
 65
   257
176
     1
 75
     1
176
     1
175
     1
176
     1
 42
1.0
176
     1
 92
        0
176
     1
 66
   257
176
     1
 43
1.0
176
     1
 76
     1
176
     1
 77
     6
176
     1
 78
     2
176
     1
 67
     7
176
     1
 79
     5
176
     1
170
     0
176
     1
171
     0
176
     1
290
     0
176
     1
 93
       13
176
     1
 44
0.0
176
     1
173
     0
176
     1
  0
VISUALSTYLE
  5
38
102
{ACAD_REACTORS
330
2A
102
}
330
2A
100
AcDbVisualStyle
  2
Linepattern
 70
    14
177
     2
291
     1
 71
     2
176
     1
 72
     2
176
     1
 73
     0
176
     1
 90
        0
176
     1
 40
-0.6
176
     1
 41
-30.0
176
     1
 62
     5
 63
     7
421
 16777215
176
     1
 74
     1
176
     1
 91
        4
176
     1
 64
     7
176
     1
 65
   257
176
     1
 75
     7
176
     1
175
     7
176
     1
 42
1.0
176
     1
 92
        8
176
     1
 66
     7
176
     1
 43
1.0
176
     1
 76
     1
176
     1
 77
     6
176
     1
 78
     2
176
     1
 67
     7
176
     1
 79
     5
176
     1
170
     0
176
     1
171
     0
176
     1
290
     0
176
     1
 93
        1
176
     1
 44
0.0
176
     1
173
     0
176
     1
  0
VISUALSTYLE
  5
33
102
{ACAD_REACTORS
330
2A
102
}
330
2A
100
AcDbVisualStyle
  2
Realistic
 70
     8
177
     2
291
     0
 71
     2
176
     1
 72
     2
176
     1
 73
     0
176
     1
 90
        0
176
     1
 40
-0.6
176
     1
 41
-30.0
176
     1
 62
     5
 63
     7
421
 16777215
176
     1
 74
     1
176
     1
 91
        0
176
     1
 64
     7
176
     1
 65
   257
176
     1
 75
     1
176
     1
175
     1
176
     1
 42
1.0
176
     1
 92
        8
176
     1
 66
     8
424
  7895160
176
     1
 43
1.0
176
     1
 76
     1
176
     1
 77
     6
176
     1
 78
     2
176
     1
 67
     7
176
     1
 79
     5
176
     1
170
     0
176
     1
171
     0
176
     1
290
     0
176
     1
 93
       13
176
     1
 44
0.0
176
     1
173
     0
176
     1
  0
VISUALSTYLE
  5
37
102
{ACAD_REACTORS
330
2A
102
}
330
2A
100
AcDbVisualStyle
  2
Thicken
 70
    13
177
     2
291
     1
 71
     2
176
     1
 72
     2
176
     1
 73
     0
176
     1
 90
        0
176
     1
 40
-0.6
176
     1
 41
-30.0
176
     1
 62
     5
 63
     7
421
 16777215
176
     1
 74
     1
176
     1
 91
        4
176
     1
 64
     7
176
     1
 65
   257
176
     1
 75
     1
176
     1
175
     1
176
     1
 42
1.0
176
     1
 92
       12
176
     1
 66
     7
176
     1
 43
1.0
176
     1
 76
     1
176
     1
 77
     6
176
     1
 78
     2
176
     1
 67
     7
176
     1
 79
     5
176
     1
170
     0
176
     1
171
     0
176
     1
290
     0
176
     1
 93
        1
176
     1
 44
0.0
176
     1
173
     0
176
     1
  0
ENDSEC
  0
EOF
